<svg xmlns="http://www.w3.org/2000/svg" width="1543" height="272" viewBox="0 0 1543 272"><g><g><g><g><path fill="none" stroke="#5e72e4" stroke-linecap="round" stroke-linejoin="round" stroke-miterlimit="50" stroke-width=".5" d="M784.663 5.109l3.783 3.783"/></g><g><path fill="none" stroke="#5e72e4" stroke-linecap="round" stroke-linejoin="round" stroke-miterlimit="50" stroke-width=".5" d="M788.446 5.109l-3.783 3.783"/></g></g><g><g><path fill="none" stroke="#5e72e4" stroke-linecap="round" stroke-linejoin="round" stroke-miterlimit="50" stroke-width=".5" d="M1019.309 81.195l3.783 3.783"/></g><g><path fill="none" stroke="#5e72e4" stroke-linecap="round" stroke-linejoin="round" stroke-miterlimit="50" stroke-width=".5" d="M1023.092 81.195l-3.783 3.783"/></g></g><g><path fill="none" stroke="#ff7979" stroke-linecap="round" stroke-linejoin="round" stroke-miterlimit="50" stroke-width=".5" d="M655.757 141.38a2.714 2.714 0 1 1 5.428 0 2.714 2.714 0 0 1-5.428 0z"/></g><g><path fill="none" stroke="#5e72e4" stroke-linecap="round" stroke-linejoin="round" stroke-miterlimit="50" stroke-width=".5" d="M579.343 84.068a2.714 2.714 0 1 1 5.428 0 2.714 2.714 0 0 1-5.428 0z"/></g><g><path fill="none" stroke="#5e72e4" stroke-linecap="round" stroke-linejoin="round" stroke-miterlimit="50" stroke-width=".5" d="M977.161.892v0l6.412 1.016v0l-4.085 5.046v0z"/></g><g><path fill="none" stroke="#ff7979" stroke-linecap="round" stroke-linejoin="round" stroke-miterlimit="50" stroke-width=".5" d="M652.351 21.078v0l-6.41 1.016v0l4.084 5.046v0z"/></g><g><path fill="none" stroke="#ff7979" stroke-linecap="round" stroke-linejoin="round" stroke-miterlimit="50" stroke-width=".5" d="M961.886 137.078c2.128 0 2.128 1.594 4.254 1.594 2.129 0 2.129-1.594 4.258-1.594 2.13 0 2.13 1.594 4.261 1.594 2.13 0 2.13-1.594 4.26-1.594 2.132 0 2.132 1.594 4.268 1.594 2.13 0 2.13-1.594 4.266-1.594"/></g></g><g><g><g><path fill="none" stroke="#5e72e4" stroke-linecap="round" stroke-linejoin="round" stroke-miterlimit="50" stroke-width=".5" d="M280.663 5.109l3.783 3.783"/></g><g><path fill="none" stroke="#5e72e4" stroke-linecap="round" stroke-linejoin="round" stroke-miterlimit="50" stroke-width=".5" d="M284.446 5.109l-3.783 3.783"/></g></g><g><g><path fill="none" stroke="#5e72e4" stroke-linecap="round" stroke-linejoin="round" stroke-miterlimit="50" stroke-width=".5" d="M515.309 81.195l3.783 3.783"/></g><g><path fill="none" stroke="#5e72e4" stroke-linecap="round" stroke-linejoin="round" stroke-miterlimit="50" stroke-width=".5" d="M519.092 81.195l-3.783 3.783"/></g></g><g><g><path fill="none" stroke="#5e72e4" stroke-linecap="round" stroke-linejoin="round" stroke-miterlimit="50" stroke-width=".5" d="M319.309 101.195l3.783 3.783"/></g><g><path fill="none" stroke="#5e72e4" stroke-linecap="round" stroke-linejoin="round" stroke-miterlimit="50" stroke-width=".5" d="M323.092 101.195l-3.783 3.783"/></g></g><g><path fill="none" stroke="#ff7979" stroke-linecap="round" stroke-linejoin="round" stroke-miterlimit="50" stroke-width=".5" d="M151.757 141.38a2.714 2.714 0 1 1 5.428 0 2.714 2.714 0 0 1-5.428 0z"/></g><g><path fill="none" stroke="#5e72e4" stroke-linecap="round" stroke-linejoin="round" stroke-miterlimit="50" stroke-width=".5" d="M75.343 84.068a2.714 2.714 0 1 1 5.428 0 2.714 2.714 0 0 1-5.428 0z"/></g><g><path fill="none" stroke="#5e72e4" stroke-linecap="round" stroke-linejoin="round" stroke-miterlimit="50" stroke-width=".5" d="M473.161.892v0l6.412 1.016v0l-4.085 5.046v0z"/></g><g><path fill="none" stroke="#ff7979" stroke-linecap="round" stroke-linejoin="round" stroke-miterlimit="50" stroke-width=".5" d="M404.853 69.98v0l-6.41 1.015v0l4.083 5.046v0z"/></g><g><path fill="none" stroke="#ff7979" stroke-linecap="round" stroke-linejoin="round" stroke-miterlimit="50" stroke-width=".5" d="M148.351 21.078v0l-6.41 1.016v0l4.084 5.046v0z"/></g><g><path fill="none" stroke="#ff7979" stroke-linecap="round" stroke-linejoin="round" stroke-miterlimit="50" stroke-width=".5" d="M457.886 137.078c2.128 0 2.128 1.594 4.254 1.594 2.129 0 2.129-1.594 4.258-1.594 2.13 0 2.13 1.594 4.261 1.594 2.13 0 2.13-1.594 4.26-1.594 2.132 0 2.132 1.594 4.268 1.594 2.13 0 2.13-1.594 4.266-1.594"/></g><g><path fill="none" stroke="#5e72e4" stroke-linecap="round" stroke-linejoin="round" stroke-miterlimit="50" stroke-width=".5" d="M193.926 69.183c2.128 0 2.128 1.594 4.255 1.594 2.128 0 2.128-1.594 4.257-1.594 2.131 0 2.131 1.594 4.26 1.594 2.13 0 2.13-1.594 4.262-1.594 2.131 0 2.131 1.594 4.266 1.594 2.133 0 2.133-1.594 4.267-1.594"/></g></g><g><g><g><path fill="none" stroke="#5e72e4" stroke-linecap="round" stroke-linejoin="round" stroke-miterlimit="50" stroke-width=".5" d="M1302.663 5.109l3.783 3.783"/></g><g><path fill="none" stroke="#5e72e4" stroke-linecap="round" stroke-linejoin="round" stroke-miterlimit="50" stroke-width=".5" d="M1306.446 5.109l-3.783 3.783"/></g></g><g><g><path fill="none" stroke="#5e72e4" stroke-linecap="round" stroke-linejoin="round" stroke-miterlimit="50" stroke-width=".5" d="M1537.309 81.195l3.783 3.783"/></g><g><path fill="none" stroke="#5e72e4" stroke-linecap="round" stroke-linejoin="round" stroke-miterlimit="50" stroke-width=".5" d="M1541.092 81.195l-3.783 3.783"/></g></g><g><g><path fill="none" stroke="#5e72e4" stroke-linecap="round" stroke-linejoin="round" stroke-miterlimit="50" stroke-width=".5" d="M1341.309 101.195l3.783 3.783"/></g><g><path fill="none" stroke="#5e72e4" stroke-linecap="round" stroke-linejoin="round" stroke-miterlimit="50" stroke-width=".5" d="M1345.092 101.195l-3.783 3.783"/></g></g><g><path fill="none" stroke="#ff7979" stroke-linecap="round" stroke-linejoin="round" stroke-miterlimit="50" stroke-width=".5" d="M1173.757 141.38a2.714 2.714 0 1 1 5.428 0 2.714 2.714 0 0 1-5.428 0z"/></g><g><path fill="none" stroke="#5e72e4" stroke-linecap="round" stroke-linejoin="round" stroke-miterlimit="50" stroke-width=".5" d="M1097.343 84.068a2.714 2.714 0 1 1 5.428 0 2.714 2.714 0 0 1-5.428 0z"/></g><g><path fill="none" stroke="#5e72e4" stroke-linecap="round" stroke-linejoin="round" stroke-miterlimit="50" stroke-width=".5" d="M1495.161.892v0l6.412 1.016v0l-4.085 5.046v0z"/></g><g><path fill="none" stroke="#ff7979" stroke-linecap="round" stroke-linejoin="round" stroke-miterlimit="50" stroke-width=".5" d="M1426.853 69.98v0l-6.41 1.015v0l4.083 5.046v0z"/></g><g><path fill="none" stroke="#ff7979" stroke-linecap="round" stroke-linejoin="round" stroke-miterlimit="50" stroke-width=".5" d="M1170.351 21.078v0l-6.41 1.016v0l4.084 5.046v0z"/></g><g><path fill="none" stroke="#ff7979" stroke-linecap="round" stroke-linejoin="round" stroke-miterlimit="50" stroke-width=".5" d="M1479.886 137.078c2.128 0 2.128 1.594 4.254 1.594 2.129 0 2.129-1.594 4.258-1.594 2.13 0 2.13 1.594 4.261 1.594 2.13 0 2.13-1.594 4.26-1.594 2.132 0 2.132 1.594 4.268 1.594 2.13 0 2.13-1.594 4.266-1.594"/></g><g><path fill="none" stroke="#5e72e4" stroke-linecap="round" stroke-linejoin="round" stroke-miterlimit="50" stroke-width=".5" d="M1215.926 69.183c2.128 0 2.128 1.594 4.255 1.594 2.128 0 2.128-1.594 4.257-1.594 2.131 0 2.131 1.594 4.26 1.594 2.13 0 2.13-1.594 4.262-1.594 2.131 0 2.131 1.594 4.266 1.594 2.133 0 2.133-1.594 4.267-1.594"/></g></g><g><g><g><path fill="none" stroke="#5e72e4" stroke-linecap="round" stroke-linejoin="round" stroke-miterlimit="50" stroke-width=".5" d="M710.663 132.109l3.783 3.783"/></g><g><path fill="none" stroke="#5e72e4" stroke-linecap="round" stroke-linejoin="round" stroke-miterlimit="50" stroke-width=".5" d="M714.446 132.109l-3.783 3.783"/></g></g><g><g><path fill="none" stroke="#5e72e4" stroke-linecap="round" stroke-linejoin="round" stroke-miterlimit="50" stroke-width=".5" d="M945.309 208.195l3.783 3.783"/></g><g><path fill="none" stroke="#5e72e4" stroke-linecap="round" stroke-linejoin="round" stroke-miterlimit="50" stroke-width=".5" d="M949.092 208.195l-3.783 3.783"/></g></g><g><g><path fill="none" stroke="#5e72e4" stroke-linecap="round" stroke-linejoin="round" stroke-miterlimit="50" stroke-width=".5" d="M749.309 228.195l3.783 3.783"/></g><g><path fill="none" stroke="#5e72e4" stroke-linecap="round" stroke-linejoin="round" stroke-miterlimit="50" stroke-width=".5" d="M753.092 228.195l-3.783 3.783"/></g></g><g><path fill="none" stroke="#ff7979" stroke-linecap="round" stroke-linejoin="round" stroke-miterlimit="50" stroke-width=".5" d="M581.757 268.38a2.714 2.714 0 1 1 5.428 0 2.714 2.714 0 0 1-5.428 0z"/></g><g><path fill="none" stroke="#5e72e4" stroke-linecap="round" stroke-linejoin="round" stroke-miterlimit="50" stroke-width=".5" d="M505.343 211.068a2.714 2.714 0 1 1 5.428 0 2.714 2.714 0 0 1-5.428 0z"/></g><g><path fill="none" stroke="#5e72e4" stroke-linecap="round" stroke-linejoin="round" stroke-miterlimit="50" stroke-width=".5" d="M903.161 127.892v0l6.412 1.016v0l-4.085 5.046v0z"/></g><g><path fill="none" stroke="#ff7979" stroke-linecap="round" stroke-linejoin="round" stroke-miterlimit="50" stroke-width=".5" d="M834.853 196.98v0l-6.41 1.015v0l4.083 5.046v0z"/></g><g><path fill="none" stroke="#ff7979" stroke-linecap="round" stroke-linejoin="round" stroke-miterlimit="50" stroke-width=".5" d="M578.351 148.078v0l-6.41 1.016v0l4.084 5.046v0z"/></g><g><path fill="none" stroke="#ff7979" stroke-linecap="round" stroke-linejoin="round" stroke-miterlimit="50" stroke-width=".5" d="M887.886 264.078c2.128 0 2.128 1.594 4.254 1.594 2.129 0 2.129-1.594 4.258-1.594 2.13 0 2.13 1.594 4.261 1.594 2.13 0 2.13-1.594 4.26-1.594 2.132 0 2.132 1.594 4.268 1.594 2.13 0 2.13-1.594 4.266-1.594"/></g><g><path fill="none" stroke="#5e72e4" stroke-linecap="round" stroke-linejoin="round" stroke-miterlimit="50" stroke-width=".5" d="M623.926 196.183c2.128 0 2.128 1.594 4.255 1.594 2.128 0 2.128-1.594 4.257-1.594 2.131 0 2.131 1.594 4.26 1.594 2.13 0 2.13-1.594 4.262-1.594 2.131 0 2.131 1.594 4.266 1.594 2.133 0 2.133-1.594 4.267-1.594"/></g></g><g><g><g><path fill="none" stroke="#5e72e4" stroke-linecap="round" stroke-linejoin="round" stroke-miterlimit="50" stroke-width=".5" d="M206.663 132.109l3.783 3.783"/></g><g><path fill="none" stroke="#5e72e4" stroke-linecap="round" stroke-linejoin="round" stroke-miterlimit="50" stroke-width=".5" d="M210.446 132.109l-3.783 3.783"/></g></g><g><g><path fill="none" stroke="#5e72e4" stroke-linecap="round" stroke-linejoin="round" stroke-miterlimit="50" stroke-width=".5" d="M441.309 208.195l3.783 3.783"/></g><g><path fill="none" stroke="#5e72e4" stroke-linecap="round" stroke-linejoin="round" stroke-miterlimit="50" stroke-width=".5" d="M445.092 208.195l-3.783 3.783"/></g></g><g><g><path fill="none" stroke="#5e72e4" stroke-linecap="round" stroke-linejoin="round" stroke-miterlimit="50" stroke-width=".5" d="M245.309 228.195l3.783 3.783"/></g><g><path fill="none" stroke="#5e72e4" stroke-linecap="round" stroke-linejoin="round" stroke-miterlimit="50" stroke-width=".5" d="M249.092 228.195l-3.783 3.783"/></g></g><g><path fill="none" stroke="#ff7979" stroke-linecap="round" stroke-linejoin="round" stroke-miterlimit="50" stroke-width=".5" d="M77.757 268.38a2.714 2.714 0 1 1 5.428 0 2.714 2.714 0 0 1-5.428 0z"/></g><g><path fill="none" stroke="#5e72e4" stroke-linecap="round" stroke-linejoin="round" stroke-miterlimit="50" stroke-width=".5" d="M1.343 211.068a2.714 2.714 0 1 1 5.428 0 2.714 2.714 0 0 1-5.428 0z"/></g><g><path fill="none" stroke="#5e72e4" stroke-linecap="round" stroke-linejoin="round" stroke-miterlimit="50" stroke-width=".5" d="M399.161 127.892v0l6.412 1.016v0l-4.085 5.046v0z"/></g><g><path fill="none" stroke="#ff7979" stroke-linecap="round" stroke-linejoin="round" stroke-miterlimit="50" stroke-width=".5" d="M330.853 196.98v0l-6.41 1.015v0l4.083 5.046v0z"/></g><g><path fill="none" stroke="#ff7979" stroke-linecap="round" stroke-linejoin="round" stroke-miterlimit="50" stroke-width=".5" d="M74.351 148.078v0l-6.41 1.016v0l4.084 5.046v0z"/></g><g><path fill="none" stroke="#ff7979" stroke-linecap="round" stroke-linejoin="round" stroke-miterlimit="50" stroke-width=".5" d="M383.886 264.078c2.128 0 2.128 1.594 4.254 1.594 2.129 0 2.129-1.594 4.258-1.594 2.13 0 2.13 1.594 4.261 1.594 2.13 0 2.13-1.594 4.26-1.594 2.132 0 2.132 1.594 4.268 1.594 2.13 0 2.13-1.594 4.266-1.594"/></g><g><path fill="none" stroke="#5e72e4" stroke-linecap="round" stroke-linejoin="round" stroke-miterlimit="50" stroke-width=".5" d="M119.926 196.183c2.128 0 2.128 1.594 4.255 1.594 2.128 0 2.128-1.594 4.257-1.594 2.131 0 2.131 1.594 4.26 1.594 2.13 0 2.13-1.594 4.262-1.594 2.131 0 2.131 1.594 4.266 1.594 2.133 0 2.133-1.594 4.267-1.594"/></g></g><g><g><g><path fill="none" stroke="#5e72e4" stroke-linecap="round" stroke-linejoin="round" stroke-miterlimit="50" stroke-width=".5" d="M1228.663 132.109l3.783 3.783"/></g><g><path fill="none" stroke="#5e72e4" stroke-linecap="round" stroke-linejoin="round" stroke-miterlimit="50" stroke-width=".5" d="M1232.446 132.109l-3.783 3.783"/></g></g><g><g><path fill="none" stroke="#5e72e4" stroke-linecap="round" stroke-linejoin="round" stroke-miterlimit="50" stroke-width=".5" d="M1463.309 208.195l3.783 3.783"/></g><g><path fill="none" stroke="#5e72e4" stroke-linecap="round" stroke-linejoin="round" stroke-miterlimit="50" stroke-width=".5" d="M1467.092 208.195l-3.783 3.783"/></g></g><g><g><path fill="none" stroke="#5e72e4" stroke-linecap="round" stroke-linejoin="round" stroke-miterlimit="50" stroke-width=".5" d="M1267.309 228.195l3.783 3.783"/></g><g><path fill="none" stroke="#5e72e4" stroke-linecap="round" stroke-linejoin="round" stroke-miterlimit="50" stroke-width=".5" d="M1271.092 228.195l-3.783 3.783"/></g></g><g><path fill="none" stroke="#ff7979" stroke-linecap="round" stroke-linejoin="round" stroke-miterlimit="50" stroke-width=".5" d="M1099.757 268.38a2.714 2.714 0 1 1 5.428 0 2.714 2.714 0 0 1-5.428 0z"/></g><g><path fill="none" stroke="#5e72e4" stroke-linecap="round" stroke-linejoin="round" stroke-miterlimit="50" stroke-width=".5" d="M1023.343 211.068a2.714 2.714 0 1 1 5.428 0 2.714 2.714 0 0 1-5.428 0z"/></g><g><path fill="none" stroke="#5e72e4" stroke-linecap="round" stroke-linejoin="round" stroke-miterlimit="50" stroke-width=".5" d="M1421.161 127.892v0l6.412 1.016v0l-4.085 5.046v0z"/></g><g><path fill="none" stroke="#ff7979" stroke-linecap="round" stroke-linejoin="round" stroke-miterlimit="50" stroke-width=".5" d="M1352.853 196.98v0l-6.41 1.015v0l4.083 5.046v0z"/></g><g><path fill="none" stroke="#ff7979" stroke-linecap="round" stroke-linejoin="round" stroke-miterlimit="50" stroke-width=".5" d="M1096.351 148.078v0l-6.41 1.016v0l4.084 5.046v0z"/></g><g><path fill="none" stroke="#ff7979" stroke-linecap="round" stroke-linejoin="round" stroke-miterlimit="50" stroke-width=".5" d="M1405.886 264.078c2.128 0 2.128 1.594 4.254 1.594 2.129 0 2.129-1.594 4.258-1.594 2.13 0 2.13 1.594 4.261 1.594 2.13 0 2.13-1.594 4.26-1.594 2.132 0 2.132 1.594 4.268 1.594 2.13 0 2.13-1.594 4.266-1.594"/></g><g><path fill="none" stroke="#5e72e4" stroke-linecap="round" stroke-linejoin="round" stroke-miterlimit="50" stroke-width=".5" d="M1141.926 196.183c2.128 0 2.128 1.594 4.255 1.594 2.128 0 2.128-1.594 4.257-1.594 2.131 0 2.131 1.594 4.26 1.594 2.13 0 2.13-1.594 4.262-1.594 2.131 0 2.131 1.594 4.266 1.594 2.133 0 2.133-1.594 4.267-1.594"/></g></g><g><g/></g></g></svg>