<svg xmlns="http://www.w3.org/2000/svg" width="71" height="66" viewBox="0 0 71 66"><g><g><g><path fill="#e7e9f6" d="M70.191 32.794c0 17.788-14.42 32.205-32.207 32.205S5.78 50.582 5.78 32.794C5.78 15.008 20.197.588 37.984.588c17.788 0 32.207 14.42 32.207 32.206z"/><path fill="none" stroke="#5e72e4" stroke-linecap="round" stroke-linejoin="round" stroke-miterlimit="50" stroke-width=".75" d="M70.191 32.794c0 17.788-14.42 32.205-32.207 32.205S5.78 50.582 5.78 32.794C5.78 15.008 20.197.588 37.984.588c17.788 0 32.207 14.42 32.207 32.206z"/></g><g><path fill="#fff" d="M65.759 32.794c0 17.788-14.418 32.205-32.204 32.205C15.767 65 1.35 50.582 1.35 32.794 1.35 15.008 15.767.588 33.555.588c17.786 0 32.204 14.42 32.204 32.206z"/><path fill="none" stroke="#5e72e4" stroke-linecap="round" stroke-linejoin="round" stroke-miterlimit="50" stroke-width=".75" d="M65.759 32.794c0 17.788-14.418 32.205-32.204 32.205C15.767 65 1.35 50.582 1.35 32.794 1.35 15.008 15.767.588 33.555.588c17.786 0 32.204 14.42 32.204 32.206z"/></g><g><path fill="#fff" d="M27.386 59.076C12.87 55.67 3.866 41.14 7.273 26.626 10.68 12.11 25.21 3.105 39.724 6.512s23.52 17.936 20.113 32.45C56.429 53.48 41.9 62.484 27.386 59.077z"/><path fill="none" stroke="#5e72e4" stroke-linecap="round" stroke-linejoin="round" stroke-miterlimit="50" stroke-width=".75" d="M27.386 59.076C12.87 55.67 3.866 41.14 7.273 26.626 10.68 12.11 25.21 3.105 39.724 6.512s23.52 17.936 20.113 32.45C56.429 53.48 41.9 62.484 27.386 59.077z"/></g><g><path fill="#5e72e4" d="M35.659 32.794a2.105 2.105 0 1 1-4.212 0 2.105 2.105 0 1 1 4.211 0z"/></g></g></g></svg>