<svg xmlns="http://www.w3.org/2000/svg" width="837" height="457" viewBox="0 0 837 457"><g><g><g><g><path fill="#e7e9f6" d="M789.557 297.156c0 34.784-8.536 52.91-19.067 52.91-10.53 0-19.066-18.126-19.066-52.91 0-34.782 8.536-73.052 19.066-73.052s19.067 38.27 19.067 73.052z"/><path fill="none" stroke="#5e72e4" stroke-linecap="round" stroke-linejoin="round" stroke-miterlimit="50" stroke-width=".75" d="M789.557 297.156c0 34.784-8.536 52.91-19.067 52.91-10.53 0-19.066-18.126-19.066-52.91 0-34.782 8.536-73.052 19.066-73.052s19.067 38.27 19.067 73.052z"/></g><g><path fill="none" stroke="#5e72e4" stroke-linecap="round" stroke-linejoin="round" stroke-miterlimit="50" stroke-width=".5" d="M770.49 224.104v125.961"/></g><g><path fill="none" stroke="#5e72e4" stroke-linecap="round" stroke-linejoin="round" stroke-miterlimit="50" stroke-width=".5" d="M753.684 324.63v0l16.806 16.808v0l16.805-16.803v0"/></g><g><path fill="none" stroke="#5e72e4" stroke-linecap="round" stroke-linejoin="round" stroke-miterlimit="50" stroke-width=".5" d="M751.464 293.02v0l19.026 19.028v0l19.027-19.025v0"/></g><g><path fill="none" stroke="#5e72e4" stroke-linecap="round" stroke-linejoin="round" stroke-miterlimit="50" stroke-width=".5" d="M753.583 265.754v0l16.907 16.906v0l16.902-16.9v0"/></g><g><path fill="none" stroke="#5e72e4" stroke-linecap="round" stroke-linejoin="round" stroke-miterlimit="50" stroke-width=".5" d="M758.692 241.469v0l11.798 11.8v0l11.795-11.794v0"/></g></g><g><g><path fill="#fff" d="M752.823 304.322c10.736 26.96 9.718 43.646 1.555 46.895-8.165 3.25-20.375-8.165-31.114-35.125-10.736-26.963-15.934-59.261-7.77-62.512 8.163-3.25 26.592 23.779 37.329 50.742z"/><path fill="none" stroke="#5e72e4" stroke-linecap="round" stroke-linejoin="round" stroke-miterlimit="50" stroke-width=".75" d="M752.823 304.322c10.736 26.96 9.718 43.646 1.555 46.895-8.165 3.25-20.375-8.165-31.114-35.125-10.736-26.963-15.934-59.261-7.77-62.512 8.163-3.25 26.592 23.779 37.329 50.742z"/></g><g><path fill="none" stroke="#5e72e4" stroke-linecap="round" stroke-linejoin="round" stroke-miterlimit="50" stroke-width=".5" d="M715.496 253.58l38.882 97.638"/></g><g><path fill="none" stroke="#5e72e4" stroke-linecap="round" stroke-linejoin="round" stroke-miterlimit="50" stroke-width=".5" d="M733.497 336.691v0l18.216 7.84v0l7.842-18.213v0"/></g><g><path fill="none" stroke="#5e72e4" stroke-linecap="round" stroke-linejoin="round" stroke-miterlimit="50" stroke-width=".5" d="M722.02 312.872v0l20.62 8.876v0l8.878-20.62v0"/></g><g><path fill="none" stroke="#5e72e4" stroke-linecap="round" stroke-linejoin="round" stroke-miterlimit="50" stroke-width=".5" d="M715.246 291.082v0l18.324 7.887v0l7.885-18.318v0"/></g><g><path fill="none" stroke="#5e72e4" stroke-linecap="round" stroke-linejoin="round" stroke-miterlimit="50" stroke-width=".5" d="M711.71 270.683v0l12.79 5.504v0l5.499-12.783v0"/></g></g><g><g><path fill="#fff" d="M786.777 311.543c-9.153 22.986-8.283 37.212-1.324 39.981 6.96 2.772 17.372-6.96 26.525-29.947 9.153-22.986 13.583-50.52 6.624-53.292-6.96-2.77-22.67 20.272-31.825 43.258z"/><path fill="none" stroke="#5e72e4" stroke-linecap="round" stroke-linejoin="round" stroke-miterlimit="50" stroke-width=".75" d="M786.777 311.543c-9.153 22.986-8.283 37.212-1.324 39.981 6.96 2.772 17.372-6.96 26.525-29.947 9.153-22.986 13.583-50.52 6.624-53.292-6.96-2.77-22.67 20.272-31.825 43.258z"/></g><g><path fill="none" stroke="#5e72e4" stroke-linecap="round" stroke-linejoin="round" stroke-miterlimit="50" stroke-width=".5" d="M818.601 268.284l-33.148 83.24"/></g><g><path fill="none" stroke="#5e72e4" stroke-linecap="round" stroke-linejoin="round" stroke-miterlimit="50" stroke-width=".5" d="M803.255 339.14v0l-15.532 6.683v0l-6.682-15.527v0"/></g><g><path fill="none" stroke="#5e72e4" stroke-linecap="round" stroke-linejoin="round" stroke-miterlimit="50" stroke-width=".5" d="M813.041 318.833v0l-17.581 7.569v0l-7.569-17.58v0"/></g><g><path fill="none" stroke="#5e72e4" stroke-linecap="round" stroke-linejoin="round" stroke-miterlimit="50" stroke-width=".5" d="M818.815 300.257v0l-15.623 6.723v0l-6.721-15.615v0"/></g><g><path fill="none" stroke="#5e72e4" stroke-linecap="round" stroke-linejoin="round" stroke-miterlimit="50" stroke-width=".5" d="M821.828 282.865v0l-10.902 4.692v0l-4.69-10.896v0"/></g></g><g><g><path fill="#fff" d="M796.005 423.957h-51.03L733.96 343.62h73.061z"/><path fill="none" stroke="#5e72e4" stroke-linecap="round" stroke-linejoin="round" stroke-miterlimit="50" stroke-width=".75" d="M796.005 423.957v0h-51.03v0L733.96 343.62v0h73.061v0z"/></g><g><g><path fill="#fff" d="M736.042 444.01v-57.953h6.408v57.953z"/><path fill="none" stroke="#5e72e4" stroke-linecap="round" stroke-linejoin="round" stroke-miterlimit="50" stroke-width=".75" d="M736.042 444.01v0-57.953 0h6.408v57.953z"/></g><g><path fill="#fff" d="M798.531 444.01v-57.953h6.408v57.953z"/><path fill="none" stroke="#5e72e4" stroke-linecap="round" stroke-linejoin="round" stroke-miterlimit="50" stroke-width=".75" d="M798.531 444.01v0-57.953 0h6.408v57.953z"/></g></g><g><path fill="#fff" d="M742.45 429.866v-5.909h56.081v5.909z"/><path fill="none" stroke="#5e72e4" stroke-linecap="round" stroke-linejoin="round" stroke-miterlimit="50" stroke-width=".75" d="M742.45 429.866v0-5.909 0h56.081v5.909z"/></g><g><path fill="#fff" d="M742.45 402.471v-5.908h56.081v5.908z"/><path fill="none" stroke="#5e72e4" stroke-linecap="round" stroke-linejoin="round" stroke-miterlimit="50" stroke-width=".75" d="M742.45 402.471v0-5.908 0h56.081v5.908z"/></g><g><path fill="#fff" d="M767.286 444.01v-57.953h6.409v57.953z"/><path fill="none" stroke="#5e72e4" stroke-linecap="round" stroke-linejoin="round" stroke-miterlimit="50" stroke-width=".75" d="M767.286 444.01v0-57.953 0h6.409v57.953z"/></g></g></g><g><path fill="none" stroke="#5e72e4" stroke-linejoin="round" stroke-miterlimit="50" stroke-width=".75" d="M836.995 433.28H.7"/></g><g><g><g><path fill="#fff" d="M517.502 427.557c-41.345-15.456-58.683-29.367-58.683-38.465v-44.048h-79.936v44.048c0 9.098-17.34 23.01-58.684 38.465-1.007 1.587-1.054 4.155-1.054 5.722h199.409c0-1.567-.047-4.135-1.052-5.722z"/></g><g><path fill="#e7e9f6" d="M463.539 398.33c-3.194-3.444-4.72-6.551-4.72-9.238v-44.048h-79.936v35.17z"/></g><g><path fill="none" stroke="#5e72e4" stroke-linecap="round" stroke-linejoin="round" stroke-miterlimit="50" stroke-width=".75" d="M517.502 427.557c-41.345-15.456-58.683-29.367-58.683-38.465v-44.048 0h-38.641v0h-2.655v0h-38.64v44.048c0 9.098-17.34 23.01-58.684 38.465-1.007 1.587-1.054 4.155-1.054 5.722h98.378v0h2.655v0h98.376c0-1.567-.047-4.135-1.052-5.722z"/></g></g><g><path fill="#fff" d="M229.932 127.035c0-3 3-6 6-6h365.837c3 0 6 3 6 6v240.116c0 3-3 6-6 6H235.932c-3 0-6-3-6-6z"/><path fill="none" stroke="#5e72e4" stroke-linecap="round" stroke-linejoin="round" stroke-miterlimit="50" stroke-width=".75" d="M229.932 127.035c0-3 3-6 6-6h365.837c3 0 6 3 6 6v240.116c0 3-3 6-6 6H235.932c-3 0-6-3-6-6z"/></g><g><path fill="#5e72e4" d="M601.087 121.035H236.613a6.682 6.682 0 0 0-6.68 6.681V335.92h377.835V127.716a6.682 6.682 0 0 0-6.68-6.68z"/><path fill="none" stroke="#5e72e4" stroke-linecap="round" stroke-linejoin="round" stroke-miterlimit="50" stroke-width=".75" d="M601.087 121.035H236.613a6.682 6.682 0 0 0-6.68 6.681V335.92h377.835v0-208.204a6.682 6.682 0 0 0-6.68-6.68z"/></g><g><path fill="#fff" d="M241.202 324.147V137.3h355.297v186.848z"/><path fill="none" stroke="#5e72e4" stroke-linecap="round" stroke-linejoin="round" stroke-miterlimit="50" stroke-width=".75" d="M241.202 324.147v0V137.3v0h355.297v186.848z"/></g><g><g><path fill="none" stroke="#5e72e4" stroke-linecap="round" stroke-linejoin="round" stroke-miterlimit="50" stroke-width=".75" d="M287.288 167.066h167.504"/></g><g><path fill="none" stroke="#5e72e4" stroke-linecap="round" stroke-linejoin="round" stroke-miterlimit="50" stroke-width=".75" d="M287.288 188.066h167.504"/></g><g><path fill="none" stroke="#5e72e4" stroke-linecap="round" stroke-linejoin="round" stroke-miterlimit="50" stroke-width=".75" d="M287.288 209.066h167.504"/></g><g><path fill="none" stroke="#5e72e4" stroke-linecap="round" stroke-linejoin="round" stroke-miterlimit="50" stroke-width=".75" d="M287.288 230.066h167.504"/></g><g><path fill="none" stroke="#5e72e4" stroke-linecap="round" stroke-linejoin="round" stroke-miterlimit="50" stroke-width=".75" d="M287.288 251.066h123.823"/></g></g><g><g><path fill="none" stroke="#5e72e4" stroke-linecap="round" stroke-linejoin="round" stroke-miterlimit="50" stroke-width=".75" d="M476.758 167.066h74.034"/></g><g><path fill="none" stroke="#5e72e4" stroke-linecap="round" stroke-linejoin="round" stroke-miterlimit="50" stroke-width=".75" d="M476.758 188.066h74.034"/></g><g><path fill="none" stroke="#5e72e4" stroke-linecap="round" stroke-linejoin="round" stroke-miterlimit="50" stroke-width=".75" d="M476.758 209.066h74.034"/></g><g><path fill="none" stroke="#5e72e4" stroke-linecap="round" stroke-linejoin="round" stroke-miterlimit="50" stroke-width=".75" d="M476.758 230.066h74.034"/></g><g><path fill="none" stroke="#5e72e4" stroke-linecap="round" stroke-linejoin="round" stroke-miterlimit="50" stroke-width=".75" d="M476.758 251.066h74.034"/></g></g></g><g><g><g><path fill="#ff7979" d="M685.28 206.863c-.518-6.337 4.195-11.895 10.533-12.412l5.416-.447c6.34-.52 11.893 4.194 12.412 10.53l2.436 29.663c.52 6.338-4.191 11.894-10.53 12.415l-5.42.443c-6.334.52-11.894-4.193-12.411-10.53z"/><path fill="none" stroke="#5e72e4" stroke-linecap="round" stroke-linejoin="round" stroke-miterlimit="50" stroke-width=".75" d="M685.28 206.863c-.518-6.337 4.195-11.895 10.533-12.412l5.416-.447c6.34-.52 11.893 4.194 12.412 10.53l2.436 29.663c.52 6.338-4.191 11.894-10.53 12.415l-5.42.443c-6.334.52-11.894-4.193-12.411-10.53z"/></g><g><g><path fill="#fff" d="M687.716 232.218l13.827-1.134 13.829 171.94-13.83 1.135z"/><path fill="none" stroke="#5e72e4" stroke-linecap="round" stroke-linejoin="round" stroke-miterlimit="50" stroke-width=".75" d="M687.716 232.218v0l13.827-1.134v0l13.829 171.94v0l-13.83 1.135v0z"/></g><g><path fill="#fff" d="M700.38 231.18l14.995-1.231 13.801 171.94-14.18 1.279z"/><path fill="none" stroke="#5e72e4" stroke-linecap="round" stroke-linejoin="round" stroke-miterlimit="50" stroke-width=".75" d="M700.38 231.18v0l14.995-1.231v0l13.801 171.94v0l-14.18 1.279v0z"/></g></g><g><path fill="#fff" d="M686.425 228.234a.855.855 0 0 1 .785-.924l27.862-2.288a.856.856 0 0 1 .923.788l.905 10.99a.86.86 0 0 1-.786.927l-27.864 2.289a.86.86 0 0 1-.921-.79z"/><path fill="none" stroke="#5e72e4" stroke-linecap="round" stroke-linejoin="round" stroke-miterlimit="50" stroke-width=".75" d="M686.425 228.234a.855.855 0 0 1 .785-.924l27.862-2.288a.856.856 0 0 1 .923.788l.905 10.99a.86.86 0 0 1-.786.927l-27.864 2.289a.86.86 0 0 1-.921-.79z"/></g><g><g><path fill="#fff" d="M711.123 429.98c5.38-1.796 9.686-1.143 12.639-.044l5.439-28.05c-3.704-7.145-14.31-1.109-14.31-1.109-9.316-4.877-13.349 3.383-13.349 3.383z"/><path fill="none" stroke="#5e72e4" stroke-linecap="round" stroke-linejoin="round" stroke-miterlimit="50" stroke-width=".75" d="M711.123 429.98c5.38-1.796 9.686-1.143 12.639-.044l5.439-28.05c-3.704-7.145-14.31-1.109-14.31-1.109-9.316-4.877-13.349 3.383-13.349 3.383v0z"/></g><g><path fill="#5e72e4" d="M711.123 429.98l8.295 22.357 4.344-22.401c-2.953-1.099-7.259-1.752-12.639.043z"/><path fill="none" stroke="#5e72e4" stroke-linecap="round" stroke-linejoin="round" stroke-miterlimit="50" stroke-width=".75" d="M711.123 429.98v0l8.295 22.357v0l4.344-22.401c-2.953-1.099-7.259-1.752-12.639.043z"/></g></g></g><g><path fill="#fff" d="M612.35 205.95l-.132-.102c-5.454-.321-9.178-4.49-14.257 1.055-.717 2.634-4.172 12.437-4.895 18.18-.659 5.22-1.986 15.182-5.574 29.208-1.124 4.395-4.054 12.7-4.197 13.315 0 0 .155 4.569.517 6.113.274 1.2.73 1.88 1.061 2.518.325.604 1.308 2.122 1.601 2.743.31.638.746 1.16 1.218.65.507-.516.944-2.336-.083-3.825-1.058-1.47-.973-2.184-1.246-3.189-.151-.593-.083-1.693.013-2.484.308 1.569.71 3.553 1.02 4.47.462 1.305 1.05 2.015 1.483 2.656.434.654 1.695 2.196 2.109 2.876.402.66.94 1.183 1.408.558.497-.62.77-2.695-.551-4.206-1.312-1.525-1.473-2.265-1.731-3.373-.395-1.624-.742-3.772-.816-4.297.395 1.435 1.025 3.683 1.431 4.623.487 1.135 1.065 1.739 1.501 2.285.43.564 1.667 1.853 2.077 2.442.406.567.917 1.001 1.308.399.402-.584.513-2.47-.78-3.732-1.285-1.284-1.342-1.99-1.786-2.928-.438-.865-.845-3.434-.896-3.77.585 1.064 1.398 2.592 1.697 3.21.442.979 1.146 1.36 1.576 1.78.451.416 1.94 1.187 2.358 1.628.43.444.938.73 1.2.157.27-.563-.062-2.022-1.336-2.93-1.278-.92-1.423-1.527-1.918-2.275-.776-1.276-1.13-2.79-1.13-2.79.494-3.825 2.276-7.396 2.004-11.414.02-.32-.045-2.069-.319-3.337 3.443-9.145 9.345-22.231 11.667-27.774 3-7.123 5.221-16.364 4.398-18.44z"/><path fill="none" stroke="#5e72e4" stroke-linecap="round" stroke-linejoin="round" stroke-miterlimit="50" stroke-width=".75" d="M612.35 205.95l-.132-.102c-5.454-.321-9.178-4.49-14.257 1.055-.717 2.634-4.172 12.437-4.895 18.18-.659 5.22-1.986 15.182-5.574 29.208-1.124 4.395-4.054 12.7-4.197 13.315 0 0 .155 4.569.517 6.113.274 1.2.73 1.88 1.061 2.518.325.604 1.308 2.122 1.601 2.743.31.638.746 1.16 1.218.65.507-.516.944-2.336-.083-3.825-1.058-1.47-.973-2.184-1.246-3.189-.151-.593-.083-1.693.013-2.484.308 1.569.71 3.553 1.02 4.47.462 1.305 1.05 2.015 1.483 2.656.434.654 1.695 2.196 2.109 2.876.402.66.94 1.183 1.408.558.497-.62.77-2.695-.551-4.206-1.312-1.525-1.473-2.265-1.731-3.373-.395-1.624-.742-3.772-.816-4.297.395 1.435 1.025 3.683 1.431 4.623.487 1.135 1.065 1.739 1.501 2.285.43.564 1.667 1.853 2.077 2.442.406.567.917 1.001 1.308.399.402-.584.513-2.47-.78-3.732-1.285-1.284-1.342-1.99-1.786-2.928-.438-.865-.845-3.434-.896-3.77.585 1.064 1.398 2.592 1.697 3.21.442.979 1.146 1.36 1.576 1.78.451.416 1.94 1.187 2.358 1.628.43.444.938.73 1.2.157.27-.563-.062-2.022-1.336-2.93-1.278-.92-1.423-1.527-1.918-2.275-.776-1.276-1.13-2.79-1.13-2.79.494-3.825 2.276-7.396 2.004-11.414.02-.32-.045-2.069-.319-3.337 3.443-9.145 9.345-22.231 11.667-27.774 3-7.123 5.221-16.364 4.398-18.44z"/></g><g><path fill="#fff" d="M604.973 232.728c-6.105-.247-12.603-2.486-12.603-2.486s-1.2-.732-1.014-1.906c.187-1.177 1.114-5.013 1.114-5.013s-1.584-.806-1.133-3.28c.453-2.476 2.062-5.322 2.186-6.559.123-1.24-.804-1.982-.247-3.096.559-1.116 4.023-5.94 4.083-7.117.063-1.176-.432-2.29-.06-3.217.372-.93 3.464-7.468 4.704-12.771 1.237-5.301 7.74-30.703 10.572-36.29 4.791-9.454 7.906-11.878 7.906-11.878l6.526 6.723z"/><path fill="none" stroke="#5e72e4" stroke-linecap="round" stroke-linejoin="round" stroke-miterlimit="50" stroke-width=".75" d="M604.973 232.728c-6.105-.247-12.603-2.486-12.603-2.486v0s-1.2-.732-1.014-1.906c.187-1.177 1.114-5.013 1.114-5.013v0s-1.584-.806-1.133-3.28c.453-2.476 2.062-5.322 2.186-6.559.123-1.24-.804-1.982-.247-3.096.559-1.116 4.023-5.94 4.083-7.117.063-1.176-.432-2.29-.06-3.217.372-.93 3.464-7.468 4.704-12.771 1.237-5.301 7.74-30.703 10.572-36.29 4.791-9.454 7.906-11.878 7.906-11.878v0l6.526 6.723v0z"/></g><g><g><g><path fill="#fff" d="M588.456 410.007l-11.738 25.725-14.446-5.719 8.82-26.877z"/><path fill="none" stroke="#5e72e4" stroke-linecap="round" stroke-linejoin="round" stroke-miterlimit="50" stroke-width=".75" d="M588.456 410.007v0l-11.738 25.725v0l-14.446-5.719v0l8.82-26.877v0z"/></g><g><g><g><path fill="#fff" d="M575.649 448.184l-2.15 4.57-47.979-18.984 2.15-4.575 15.123 5.993z"/></g><g><path fill="#e7e9f6" d="M559.482 423.12c3.77-1.017 4.869-2.676 6.23-2.021 1.378.668 2.252 3.158.055 5.169-.784-.342-1.713-.48-3.038-.468-2.762.007-13.887.334-16.352.5-2.468.162-2.647 1.886-2.647 1.886-.204-1.405-.606-2.332-.817-2.745 0 0 .447-1.303 2.658-1.278 2.199.022 10.152-.042 13.911-1.042z"/></g><g><path fill="#fff" d="M546.377 426.3c2.465-.166 13.59-.493 16.352-.5 1.325-.012 2.254.126 3.038.468.855.351 1.53.953 2.316 1.912 1.52 1.854 3.662 3.715 6.177 4.639 2.513.928 3.711.443 4.157 2.446.432 2.007-.006 8.088-2.768 12.919l-32.857-12.996c1.106-2.936 1.174-5.3.938-7.002 0 0 .18-1.724 2.647-1.886z"/></g><g><path fill="#fff" d="M542.913 425.441c.211.413.613 1.34.817 2.745.236 1.703.168 4.066-.938 7.002l-15.122-5.994s2.638-6.583 15.112-3.989c0 0 .051.085.13.236z"/></g></g><g><g><path fill="none" stroke="#5e72e4" stroke-linecap="round" stroke-linejoin="round" stroke-miterlimit="50" stroke-width=".75" d="M575.649 448.184v0l-32.856-12.996v0l-15.123-5.993v0l-2.15 4.575v0l47.98 18.984v0z"/></g><g><path fill="none" stroke="#5e72e4" stroke-linecap="round" stroke-linejoin="round" stroke-miterlimit="50" stroke-width=".75" d="M527.67 429.194v0s2.638-6.583 15.112-3.989c0 0 .051.085.13.236.212.413.614 1.34.818 2.745.236 1.703.168 4.066-.938 7.002"/></g><g><path fill="none" stroke="#5e72e4" stroke-linecap="round" stroke-linejoin="round" stroke-miterlimit="50" stroke-width=".75" d="M543.73 428.186v0s.18-1.724 2.647-1.886c2.465-.166 13.59-.493 16.352-.5 1.325-.012 2.254.126 3.037.468.856.351 1.532.953 2.317 1.912 1.52 1.854 3.662 3.715 6.177 4.639 2.513.928 3.711.443 4.157 2.446.432 2.007-.006 8.088-2.768 12.919"/></g><g><path fill="none" stroke="#5e72e4" stroke-linecap="round" stroke-linejoin="round" stroke-miterlimit="50" stroke-width=".75" d="M542.913 425.44v0s.447-1.302 2.658-1.277c2.199.022 10.152-.042 13.911-1.042 3.77-1.018 4.869-2.677 6.23-2.022 1.378.668 2.252 3.158.055 5.169"/></g></g></g><g><g><path fill="#fff" d="M549.414 428.409a1.031 1.031 0 0 1-2.001.493l-1.265-5.143a1.032 1.032 0 1 1 2.003-.496z"/><path fill="none" stroke="#5e72e4" stroke-linecap="round" stroke-linejoin="round" stroke-miterlimit="50" stroke-width=".75" d="M549.414 428.409a1.03 1.03 0 0 1-.751 1.25v0a1.031 1.031 0 0 1-1.25-.758l-1.265-5.142a1.03 1.03 0 0 1 .755-1.25v0a1.032 1.032 0 0 1 1.248.753z"/></g><g><path fill="#fff" d="M553.796 428.528a1.031 1.031 0 0 1-2.001.493l-1.418-5.581a1.036 1.036 0 0 1 .755-1.25 1.04 1.04 0 0 1 1.25.759z"/><path fill="none" stroke="#5e72e4" stroke-linecap="round" stroke-linejoin="round" stroke-miterlimit="50" stroke-width=".75" d="M553.796 428.528a1.03 1.03 0 0 1-.753 1.247v0a1.031 1.031 0 0 1-1.248-.755l-1.418-5.58a1.036 1.036 0 0 1 .755-1.25v0a1.04 1.04 0 0 1 1.25.759z"/></g><g><path fill="#fff" d="M558.18 428.64a1.035 1.035 0 0 1-.758 1.254 1.035 1.035 0 0 1-1.25-.759l-1.563-6.007a1.038 1.038 0 0 1 .757-1.253 1.037 1.037 0 0 1 1.248.759z"/><path fill="none" stroke="#5e72e4" stroke-linecap="round" stroke-linejoin="round" stroke-miterlimit="50" stroke-width=".75" d="M558.18 428.64a1.035 1.035 0 0 1-.758 1.254v0a1.035 1.035 0 0 1-1.25-.759l-1.563-6.007a1.038 1.038 0 0 1 .757-1.253v0a1.037 1.037 0 0 1 1.248.759z"/></g><g><path fill="#fff" d="M562.563 428.764a1.034 1.034 0 0 1-.759 1.247 1.027 1.027 0 0 1-1.246-.755l-1.72-6.445a1.034 1.034 0 0 1 .761-1.25c.553-.137 1.11.2 1.246.754z"/><path fill="none" stroke="#5e72e4" stroke-linecap="round" stroke-linejoin="round" stroke-miterlimit="50" stroke-width=".75" d="M562.563 428.764a1.034 1.034 0 0 1-.759 1.247v0a1.027 1.027 0 0 1-1.246-.755l-1.72-6.445a1.034 1.034 0 0 1 .761-1.25v0c.553-.137 1.11.2 1.246.754z"/></g></g></g><g><path fill="#fff" d="M600.861 243.993s-12.739 66.829-15.737 83.7c-2.996 16.87-14.28 67.67-20.81 86.969 0 0 23.818 9.467 23.95 9.434 18.193-36.152 26.819-83.898 28.618-89.403 1.797-5.507 13.897-41.711 16.051-47.012 2.156-5.3 9.343-13.343 8.818-30.298l-39.935-15.804z"/><path fill="none" stroke="#5e72e4" stroke-linecap="round" stroke-linejoin="round" stroke-miterlimit="50" stroke-width=".75" d="M600.861 243.993v0s-12.739 66.829-15.737 83.7c-2.996 16.87-14.28 67.67-20.81 86.969 0 0 23.818 9.467 23.95 9.434 18.193-36.152 26.819-83.898 28.618-89.403 1.797-5.507 13.897-41.711 16.051-47.012 2.156-5.3 9.343-13.343 8.818-30.298l-39.935-15.804v0z"/></g></g><g><g><g><path fill="#fff" d="M666.412 407.501l-1.45 28.238h-15.537l-1.689-28.238z"/><path fill="none" stroke="#5e72e4" stroke-linecap="round" stroke-linejoin="round" stroke-miterlimit="50" stroke-width=".75" d="M666.412 407.501v0l-1.45 28.238v0h-15.537v0l-1.689-28.238v0z"/></g><g><g><g><path fill="#fff" d="M668.548 447.712l-.317 5.042h-51.598l.316-5.044 16.267.007z"/></g><g><path fill="#e7e9f6" d="M644.296 430.357c3.13-2.337 3.542-4.282 5.048-4.172 1.526.113 3.255 2.108 1.95 4.783-.851-.028-1.767.185-2.994.684-2.565 1.025-12.79 5.42-15.021 6.483-2.235 1.059-1.767 2.728-1.767 2.728-.706-1.231-1.422-1.945-1.773-2.253 0 0-.062-1.376 2.003-2.167 2.052-.787 9.426-3.774 12.554-6.086z"/></g><g><path fill="#fff" d="M633.279 438.135c2.231-1.063 12.456-5.458 15.021-6.483 1.227-.498 2.143-.712 2.994-.683.925.013 1.775.326 2.862.928 2.094 1.163 4.77 2.105 7.448 2.04 2.678-.063 3.615-.954 4.764.747 1.143 1.703 2.972 7.519 2.18 13.028l-35.331.005c-.052-3.137-.861-5.36-1.705-6.854 0 0-.468-1.67 1.767-2.728z"/></g><g><path fill="#fff" d="M629.74 438.61c.35.308 1.066 1.022 1.772 2.253.844 1.495 1.653 3.717 1.705 6.854l-16.268-.007s.03-7.095 12.584-9.27c0 0 .08.059.206.17z"/></g></g><g><g><path fill="none" stroke="#5e72e4" stroke-linecap="round" stroke-linejoin="round" stroke-miterlimit="50" stroke-width=".75" d="M668.548 447.712v0l-35.332.005v0l-16.267-.007v0l-.316 5.044v0h51.598v0z"/></g><g><path fill="none" stroke="#5e72e4" stroke-linecap="round" stroke-linejoin="round" stroke-miterlimit="50" stroke-width=".75" d="M616.95 447.71v0s.03-7.095 12.583-9.27c0 0 .08.059.206.17.351.308 1.067 1.022 1.773 2.253.844 1.495 1.653 3.717 1.705 6.854"/></g><g><path fill="none" stroke="#5e72e4" stroke-linecap="round" stroke-linejoin="round" stroke-miterlimit="50" stroke-width=".75" d="M631.512 440.863v0s-.468-1.67 1.767-2.728c2.231-1.063 12.456-5.458 15.021-6.483 1.227-.498 2.143-.712 2.994-.683.925.013 1.775.326 2.862.928 2.094 1.163 4.77 2.105 7.448 2.04 2.678-.063 3.615-.954 4.764.747 1.143 1.703 2.972 7.519 2.18 13.028"/></g><g><path fill="none" stroke="#5e72e4" stroke-linecap="round" stroke-linejoin="round" stroke-miterlimit="50" stroke-width=".75" d="M629.74 438.61v0s-.063-1.376 2.002-2.167c2.052-.787 9.426-3.774 12.554-6.086 3.13-2.337 3.542-4.282 5.048-4.172 1.526.113 3.255 2.108 1.95 4.783"/></g></g></g><g><g><path fill="#fff" d="M636.88 438.977a1.031 1.031 0 1 1-1.682 1.197l-3.067-4.318a1.032 1.032 0 0 1 1.68-1.199z"/><path fill="none" stroke="#5e72e4" stroke-linecap="round" stroke-linejoin="round" stroke-miterlimit="50" stroke-width=".75" d="M636.88 438.977c.331.466.222 1.11-.243 1.44v0c-.464.33-1.11.22-1.438-.243l-3.068-4.318a1.032 1.032 0 0 1 .242-1.44v0a1.032 1.032 0 0 1 1.438.241z"/></g><g><path fill="#fff" d="M640.996 437.476a1.03 1.03 0 0 1-.24 1.438 1.035 1.035 0 0 1-1.44-.245l-3.368-4.667a1.032 1.032 0 0 1 .242-1.44 1.039 1.039 0 0 1 1.44.245z"/><path fill="none" stroke="#5e72e4" stroke-linecap="round" stroke-linejoin="round" stroke-miterlimit="50" stroke-width=".75" d="M640.996 437.476a1.03 1.03 0 0 1-.24 1.438v0a1.035 1.035 0 0 1-1.44-.245l-3.368-4.667a1.032 1.032 0 0 1 .242-1.44v0a1.039 1.039 0 0 1 1.44.245z"/></g><g><path fill="#fff" d="M645.115 435.97c.33.468.221 1.113-.243 1.442-.465.33-1.11.219-1.44-.246l-3.663-5.012a1.032 1.032 0 0 1 .24-1.442 1.035 1.035 0 0 1 1.438.245z"/><path fill="none" stroke="#5e72e4" stroke-linecap="round" stroke-linejoin="round" stroke-miterlimit="50" stroke-width=".75" d="M645.115 435.97c.33.468.221 1.113-.243 1.442v0c-.465.33-1.11.219-1.44-.246l-3.663-5.012a1.032 1.032 0 0 1 .24-1.442v0a1.035 1.035 0 0 1 1.438.245z"/></g><g><path fill="#fff" d="M649.233 434.469c.328.462.22 1.108-.244 1.438a1.024 1.024 0 0 1-1.436-.243l-3.969-5.362a1.026 1.026 0 0 1 .244-1.438 1.033 1.033 0 0 1 1.438.24z"/><path fill="none" stroke="#5e72e4" stroke-linecap="round" stroke-linejoin="round" stroke-miterlimit="50" stroke-width=".75" d="M649.233 434.469c.328.462.22 1.108-.244 1.438v0a1.024 1.024 0 0 1-1.436-.243l-3.969-5.362a1.026 1.026 0 0 1 .244-1.438v0a1.033 1.033 0 0 1 1.438.24z"/></g></g></g><g><path fill="#fff" d="M616.862 248.57s12.743 66.828 16.164 83.618c3.422 16.789 10.163 71.346 11.193 91.696h28.271s-1.944-54.966-3.477-65.94c-1.535-10.972-6.307-74.83-6.254-80.553.055-5.722 3.776-15.843-2.949-31.418h-42.948z"/><path fill="none" stroke="#5e72e4" stroke-linecap="round" stroke-linejoin="round" stroke-miterlimit="50" stroke-width=".75" d="M616.862 248.57v0s12.743 66.828 16.164 83.618c3.422 16.789 10.163 71.346 11.193 91.696h28.271v0s-1.944-54.966-3.477-65.94c-1.535-10.972-6.307-74.83-6.254-80.553.055-5.722 3.776-15.843-2.949-31.418h-42.948v0z"/></g></g><g><g><path fill="#fff" d="M657.179 133.977c4.483 4.9 8.514 6.058 10.428 7.024 6.243 3.147 11.593 5.822 9.626 20.217-1.967 14.395-7.498 19.604-12.895 33.338-5.4 13.732-2.742 49.32-2.359 50.153.387.83-1.397 3.024-1.397 3.024s-31.522 12.023-60.806 0c0 0-1.375-2.654-.744-5.224.63-2.57 5.31-26.941 6.261-44.685.951-17.744 1.89-37.94 3.89-42.768 2-4.828 3.536-12.912 9.366-16.295 5.83-3.382 6.6-3.172 11.066-3.83z"/></g><g><g><path fill="#5e72e4" d="M606.022 180.402c.136.79-.127 1.311 0 2.01 9.733 3.28 27.555 7.178 53 7.178 2.2 0 4.786.06 7.117 0l1.025-1.947c-30.41.852-50.805-3.662-61.142-7.241z"/></g><g><path fill="#5e72e4" d="M605.863 189.767c.008.643 0 1.332-.017 2.072 10.011 3.07 29.486 6.81 52.834 6.81 1.388 0 2.847-.033 4.286-.056.285-.643.572-1.283.868-1.92-26.231.472-47.418-3.637-57.971-6.906z"/></g><g><path fill="#5e72e4" d="M605.505 198.53c-.048.648-.1 1.322-.155 2.03 10.079 2.949 30.844 6.894 53.24 6.894.864 0 2.217.009 3.099 0 .211-.61.006-1.282.25-1.945-24.148.268-45.999-3.903-56.434-6.978z"/></g><g><path fill="#5e72e4" d="M604.693 207.6c-.08.655-.17 1.321-.266 2 10.106 2.861 32.086 6.791 53.83 6.791.703 0 1.456-.022 2.171-.028.078-.604.189-1.242.323-1.905-22.945.18-45.69-3.91-56.058-6.858z"/></g><g><path fill="#5e72e4" d="M677.254 161.031c-32.645 1.51-56.289-4.07-67.368-7.81-.321.556-.244 1.345-.597 1.95 9.608 3.336 28.996 8.078 55.109 8.078 3.96 0 8.159-.106 12.542-.31.104-.571.214-1.14.293-1.721.01-.066.011-.12.02-.187z"/></g><g><path fill="#5e72e4" d="M606.474 170.538c-.019.685-.007 1.393.027 2.114 9.048 3.455 25.9 8.158 54.312 8.158 3.077 0 6.33-.08 9.661-.199.325-.641.646-1.283.958-1.929-35.033 1.342-55.28-4.399-64.958-8.144z"/></g><g><path fill="#5e72e4" d="M607.904 162.406c-.308.604-.448 1.303-.718 1.887 9.014 3.456 26.906 7.736 55.413 7.736 3.75 0 7.73-.103 11.863-.285.237-.634.46-1.274.677-1.914-35.245 1.592-57.039-3.607-67.235-7.424z"/></g></g><g><path fill="none" stroke="#5e72e4" stroke-linecap="round" stroke-linejoin="round" stroke-miterlimit="50" stroke-width=".75" d="M657.179 133.977c4.483 4.9 8.514 6.058 10.428 7.024 6.243 3.147 13.424 4.051 11.456 18.446-1.967 14.395-14.914 27.82-17.084 45.77-2.17 17.95-.383 38.66 0 39.492.387.83-1.397 3.024-1.397 3.024v0s-31.522 12.023-60.806 0c0 0-1.375-2.654-.744-5.224.63-2.57 7.207-34.097 6.838-52.962-.369-18.866 2.85-42.372 9.78-48.546 6.933-6.173 11.967-4.744 13.965-6.07z"/></g></g><g><g><path fill="#fff" d="M654.783 112.35s-.952 9.084-.587 14.289c.364 5.203 4.76 9.45 4.76 9.45s-7.031 11.503-23.15 8.501c-6.996-1.306-7.692-7.623-6.665-9.088 1.027-1.463 7.253-6.2 7.253-23.152z"/></g><g><path fill="#e7e9f6" d="M654.115 123.567c.026-5.076.668-11.217.668-11.217h-18.39c0 16.952-6.225 21.689-7.252 23.152-.49.7-.578 2.5.211 4.336 11.78-1.821 20.887-11.468 24.763-16.27z"/></g><g><path fill="none" stroke="#5e72e4" stroke-linecap="round" stroke-linejoin="round" stroke-miterlimit="50" stroke-width=".75" d="M654.783 112.35v0s-.952 9.084-.587 14.289c.364 5.203 4.76 9.45 4.76 9.45v0s-7.031 11.503-23.15 8.501c-6.996-1.306-7.692-7.623-6.665-9.088 1.027-1.463 7.253-6.2 7.253-23.152z"/></g></g><g><path fill="#fff" d="M629.545 75.792c-8.61 5.645-10.444 13.738-10.444 22.309 0 8.572.057 8.848-.383 13.243-.438 4.394 3.713 15.585 9.103 16.475 6.154 1.017 19.909-1.97 25.954-11.475 6.813-2.197 12.331-7.681 12.877-21.868.658-17.142-20.46-29.595-37.107-18.684z"/><path fill="none" stroke="#5e72e4" stroke-linecap="round" stroke-linejoin="round" stroke-miterlimit="50" stroke-width=".75" d="M629.545 75.792c-8.61 5.645-10.444 13.738-10.444 22.309 0 8.572.057 8.848-.383 13.243-.438 4.394 3.713 15.585 9.103 16.475 6.154 1.017 19.909-1.97 25.954-11.475 6.813-2.197 12.331-7.681 12.877-21.868.658-17.142-20.46-29.595-37.107-18.684z"/></g><g><g><path fill="#ff7979" d="M636.552 98.876s.776-.047 2.133-.124c1.348 0 3.282.015 5.571.298a48.64 48.64 0 0 1 3.68.534c.64.115 1.325.265 2.042.442.361.08.663.204 1.007.304.294.136.449.23.674.359.185.168.387.33.536.53.623.83.636 1.805.666 2.475.006.32.03.874-.058 1.254-.083.41-.233 1.665-.38 2.038-.134.399-.285.74-.443 1.077a7.34 7.34 0 0 1-.57 1.09c-.495.728-1.226 1.224-1.962 1.571-1.49.65-3.09.778-4.572.87-1.501.118-3.047.021-4.463-.305a15.1 15.1 0 0 1-3.934-1.486 11.034 11.034 0 0 1-1.648-1.117c-.253-.223-.474-.416-.716-.733-.057-.083-.125-.17-.17-.245l-.102-.195c-.098-.25-.104-.347-.158-.526-.244-1.27-.02-3.198.058-4.112.025-.23.05-.45.068-.667.038-.222.062-.487.132-.704a3.96 3.96 0 0 1 .502-1.166c.421-.663.903-1.082 1.456-1.294.42-.145.553-.143.568-.154zm.102 1.28h.047c.03-.005.045-.008.038-.01zm-.396.106c-.11.043-.495.28-.787.734-.163.216-.29.51-.39.827-.06.166-.07.317-.113.52-.03.21-.06.434-.088.662-.123.91-.338 2.79-.18 3.768.025.09.068.281.068.3l.093.197c.034.049.062.073.088.115.11.156.329.383.531.562.425.38.923.731 1.46 1.06 1.081.63 2.316 1.17 3.66 1.49 1.348.324 2.764.477 4.234.346.757-.019 1.467-.128 2.188-.24l1.057-.275c.34-.111.661-.26.99-.397.6-.349 1.127-.774 1.44-1.338.143-.298.26-.574.372-.957.126-.36.24-.714.306-1.038.1-.333.192-1.514.226-1.834.032-.164.012-.307.01-.45-.004-.138-.002-.295-.029-.49-.066-.772-.179-1.32-.432-1.642-.062-.083-.155-.13-.217-.211-.085-.034-.242-.104-.255-.133-.33-.09-.676-.213-.984-.275a29.23 29.23 0 0 0-1.872-.4 50.97 50.97 0 0 0-3.566-.582c-1.112-.162-2.135-.226-3.038-.325-.904-.045-1.695-.088-2.344-.12-1.103.014-1.804.019-1.985.02-.08.013-.266.042-.443.106z"/></g><g><path fill="#ff7979" d="M619.326 96.813l.066-.008s.147-.018.425-.06c.277-.024.693-.12 1.214-.13.515-.006 1.151-.038 1.861.04.72.041 1.512.175 2.371.347.878.194 1.73.387 2.828.844l.323.166.083.04.04.024.088.051.03.024c.082.07.16.144.236.221.172.148.272.32.361.499.108.185.151.353.193.519.158.681.096 1.272.04 1.822-.035.268-.057.541-.103.793-.06.292-.088.606-.177.885-.14.57-.363 1.116-.59 1.654-.45.944-.943 2.224-2.014 2.958-.998.774-2.318.98-3.4 1.029-1.164.04-2.405-.183-3.339-.825-.957-.618-1.722-1.354-2.294-2.315-.15-.262-.27-.517-.32-.732l-.055-.166c-.034-.187-.014-.163-.027-.251l-.022-.372c-.044-.504.015-.946.034-1.386.07-.866.17-1.63.25-2.318.099-.746.28-1.365.508-1.879.123-.254.225-.481.376-.68l.208-.271c.102-.104.211-.193.313-.264.229-.172.264-.146.34-.193l.098-.04zm.289 1.261l.037-.003a1.66 1.66 0 0 0 .08-.033zm.02.004c-.035.019-.224.068-.175.098 0 .011-.004.017-.023.019-.038.045-.073.094-.117.147-.089.1-.181.278-.281.46-.19.382-.374.914-.483 1.524-.11.676-.244 1.444-.348 2.26-.037.4-.11.836-.08 1.244v.315c-.004.022.006.14-.004.114l.04.152c.035.108.056.24.1.333l.137.25c.383.724 1.083 1.488 1.895 2.017.816.585 1.822.808 2.857.768a6.121 6.121 0 0 0 1.568-.24c.49-.173.967-.383 1.331-.722.782-.654 1.025-1.647 1.361-2.74.134-.511.26-1.013.353-1.502.059-.25.053-.478.09-.714.025-.27.046-.532.07-.799.044-.494.048-.964-.037-1.272-.019-.08-.038-.158-.07-.187-.019-.05-.038-.1-.068-.104a.09.09 0 0 1-.028-.04l-.08-.039-.326-.17a17.189 17.189 0 0 0-2.39-.742c-.791-.18-1.529-.319-2.182-.389-.653-.103-1.218-.09-1.686-.12-.468-.023-.82.043-1.065.049l-.342.023-.017.007zm-1.51 6.181l-.005-.017a.16.16 0 0 0 .004.017zm9.598-4.8h.002l.041.023.01.004c.06.036-.068-.041-.057-.032l.004.004v.001z"/></g><g><path fill="#ff7979" d="M651.441 100.566s1.752.576 2.132.72c.383.143.587.71.568 1.134-.017.425-.164 1.234-.193 1.368-.024.136-.426.423-.666.55-.243.13-.453.466-.453.466z"/></g><g><path fill="#ff7979" d="M653.573 101.285l5.942 2.364-1.15 1.71-4.792-1.504z"/></g><g><path fill="#ff7979" d="M618.692 97.177s-1.076.338-1.271.453c-.202.112-.381.321-.402.548-.023.225-.051.678-.06.872-.012.193.749.574.749.574z"/></g><g><path fill="#ff7979" d="M629.152 100.111s3.01-.396 5.361 1.084l-.557 2.04s-3.175-1.887-5.242-.934z"/></g></g><g><path fill="#5e72e4" d="M618.412 74.471s-3.71 6.023-5.034 12.46c-1.324 6.439 2.067 10.168 6.982 10.784l3.166-22.525z"/><path fill="none" stroke="#5e72e4" stroke-linecap="round" stroke-linejoin="round" stroke-miterlimit="50" stroke-width=".75" d="M618.412 74.471v0s-3.71 6.023-5.034 12.46c-1.324 6.439 2.067 10.168 6.982 10.784l3.166-22.525v0z"/></g><g><path fill="#5e72e4" d="M618.412 74.47s7.923 16.434 35.121 23.414l2.286 8.272s1.296.06 2.695-1.76l3.155-3.533-1.938 12.213s-4.556-.77-4.936 2.228c-.38 2.998-.448 11.114-.448 11.114s6.53-6.947 10.074-10.682c3.545-3.737 8.494-11.658 9.682-20.108 1.187-8.45-1.037-22.153-14.917-29.013-13.88-6.862-31.146-4.126-40.774 7.856z"/><path fill="none" stroke="#5e72e4" stroke-linecap="round" stroke-linejoin="round" stroke-miterlimit="50" stroke-width=".75" d="M618.412 74.47v0s7.923 16.434 35.121 23.414l2.286 8.272v0s1.296.06 2.695-1.76l3.155-3.533v0l-1.938 12.213v0s-4.556-.77-4.936 2.228c-.38 2.998-.448 11.114-.448 11.114v0s6.53-6.947 10.074-10.682c3.545-3.737 8.494-11.658 9.682-20.108 1.187-8.45-1.037-22.153-14.917-29.013-13.88-6.862-31.146-4.126-40.774 7.856z"/></g><g><path fill="#5e72e4" d="M620.972 78.354s.43 10.93 9.436 16.956c-.123-6.34-1.445-13.234-1.445-13.234z"/><path fill="none" stroke="#5e72e4" stroke-linecap="round" stroke-linejoin="round" stroke-miterlimit="50" stroke-width=".75" d="M620.972 78.354v0s.43 10.93 9.436 16.956c-.123-6.34-1.445-13.234-1.445-13.234v0z"/></g><g><g><path fill="#fff" d="M655.863 106.233s2.692-4.834 6.977-4.56c4.287.275 2.694 7.033 0 10.44-2.694 3.406-7.198 4.45-9.065 4.231 0 0-.055-5 2.088-10.11z"/></g><g><path fill="none" stroke="#5e72e4" stroke-linecap="round" stroke-linejoin="round" stroke-miterlimit="50" stroke-width=".75" d="M655.863 106.233v0s2.692-4.834 6.977-4.56c4.287.275 2.694 7.033 0 10.44-2.694 3.406-7.198 4.45-9.065 4.231"/></g></g><g><path fill="#5e72e4" d="M645.833 105.138c-.106 1.314-1.025 2.31-2.052 2.226-1.03-.085-1.779-1.216-1.671-2.528.106-1.31 1.029-2.307 2.058-2.224 1.027.085 1.772 1.218 1.665 2.526z"/></g><g><path fill="#5e72e4" d="M626.152 102.816c-.096 1.152-.85 2.03-1.686 1.962-.836-.068-1.44-1.057-1.346-2.209.093-1.15.848-2.03 1.686-1.961.836.067 1.437 1.059 1.346 2.208z"/></g><g><path fill="none" stroke="#5e72e4" stroke-linecap="round" stroke-linejoin="round" stroke-miterlimit="50" stroke-width=".75" d="M628.212 112.682s-1.199-.814-.372-2.84"/></g><g><path fill="none" stroke="#ff7979" stroke-linecap="round" stroke-linejoin="round" stroke-miterlimit="50" stroke-width=".75" d="M627.345 118.457s3.638 1.508 7.708-.42"/></g><g><path fill="none" stroke="#5e72e4" stroke-linecap="round" stroke-linejoin="round" stroke-miterlimit="50" stroke-width=".75" d="M637.21 97.706s2.055-.88 6.625.54"/></g><g><path fill="none" stroke="#5e72e4" stroke-linecap="round" stroke-linejoin="round" stroke-miterlimit="50" stroke-width=".75" d="M626.675 96.38s-1.146-.787-2.735-.915"/></g><g><g><g><g><path fill="#fff" d="M667.526 225.89c.283 2.476-.867 3.927-1.339 4.06-.472.132-.793-1.17-1.114-2.417a5.753 5.753 0 0 0-.285-.868c.397.983-.453 2.435-.96 2.586-.512.17-.944-1.17-1.343-2.416-.264-.85-1.925-5.135-1.888-6.457.038-1.34.151-6.607.623-7.908.472-1.304 5.248-10.366 6.062-12.31.829-1.945 1.737-3.34 3.415-4.191 1.68-.85 15.935-6.834 15.935-6.834l5.379 9.609s-13.12 3.153-13.838 3.625c-.699.472-.699 2.003-1.13 4.02-.945 4.23-3.474 6.91-3.665 7.363-.189.491.19 4.644.245 5.682.038 1.02.982 1.607 1.662 3.42.68 1.812-.265 2.907-.718 2.47-.453-.434-3.549-3.265-3.794-4.474a300.29 300.29 0 0 1-.397-2.038c.21 1.264-.111 3.001.21 4.077.32 1.095.793 2.4.659 3.946-.114 1.548-1.433 1.34-1.794.623-.358-.699-1.831-3.264-2.169-4.776-.077-.34-.17-.888-.285-1.567.151.925.246 2.303.529 4.776z"/></g></g><g><g><path fill="none" stroke="#5e72e4" stroke-linecap="round" stroke-linejoin="round" stroke-miterlimit="50" stroke-width=".75" d="M670.376 218.812c.17.887.321 1.66.397 2.038.245 1.209 3.341 4.04 3.794 4.474.453.437 1.397-.658.718-2.47-.68-1.813-1.624-2.4-1.662-3.42-.054-1.038-.434-5.191-.245-5.682.19-.453 2.72-3.134 3.664-7.362.432-2.018.432-3.55 1.131-4.021.717-.472 13.838-3.625 13.838-3.625v0l-5.379-9.609v0s-14.255 5.984-15.935 6.834c-1.678.851-2.586 2.246-3.415 4.19-.813 1.945-5.59 11.007-6.062 12.311-.472 1.301-.585 6.568-.623 7.908-.037 1.322 1.624 5.607 1.888 6.457.399 1.246.83 2.586 1.342 2.416.508-.15 1.358-1.603.961-2.586"/></g><g><path fill="none" stroke="#5e72e4" stroke-linecap="round" stroke-linejoin="round" stroke-miterlimit="50" stroke-width=".75" d="M669.527 214.394s.453 2.4.83 4.323"/></g><g><path fill="none" stroke="#5e72e4" stroke-linecap="round" stroke-linejoin="round" stroke-miterlimit="50" stroke-width=".75" d="M666.187 215.055v0s.453 3.7.81 6.06c.115.68.208 1.227.285 1.567.338 1.512 1.81 4.077 2.17 4.776.36.717 1.68.925 1.793-.623.134-1.546-.338-2.85-.66-3.946-.32-1.076 0-2.813-.209-4.077 0-.036-.018-.057-.018-.095"/></g><g><path fill="none" stroke="#5e72e4" stroke-linecap="round" stroke-linejoin="round" stroke-miterlimit="50" stroke-width=".75" d="M663.356 215.055v0s-.078 5.91 0 7.287c.054 1.114.943 2.983 1.432 4.323.134.32.227.623.285.868.321 1.246.642 2.549 1.114 2.417.472-.133 1.622-1.584 1.339-4.06-.283-2.472-.378-3.85-.529-4.775"/></g></g></g><g><g><path fill="#fff" d="M719.27 182.377c-.358-.338-1.168-1.039-2.34-2.02-5.022-4.267-16.367-13.63-23.333-19.577-8.571-7.325-18.855-16.146-18.855-16.146-3.53-1.736-10.954 7.613-11.502 17.92-.566 10.308 2.266 17.708 7.08 18.37 4.816.679 22.993 3.718 22.993 3.718-3.662 1.774-8.76 4.23-8.76 4.23l6.514 11.288s20.37-1.492 25.825-6.626c5.475-5.154 4.267-9.381 2.379-11.157z"/></g><g><g><path fill="none" stroke="#5e72e4" stroke-linecap="round" stroke-linejoin="round" stroke-miterlimit="50" stroke-width=".75" d="M693.313 184.642v0s-18.177-3.04-22.993-3.717c-4.814-.663-7.646-8.063-7.08-18.37.548-10.308 11.36-18.014 11.36-18.014v0s11.101 7.913 19.672 15.238c6.966 5.947 17.636 16.311 22.658 20.578 1.172.981 1.982 1.682 2.34 2.02 1.889 1.776 3.097 6.003-2.378 11.157-5.456 5.134-25.825 6.626-25.825 6.626v0l-6.513-11.287v0s5.097-2.456 8.76-4.231c1.529-.736 2.793-1.357 3.34-1.642 1.889-.944 6.23-3.304 16.293-1.718"/></g></g></g></g></g><g><g><g><path fill="none" stroke="#5e72e4" stroke-linecap="round" stroke-linejoin="round" stroke-miterlimit="50" stroke-width=".5" d="M635.663 17.109l3.783 3.783"/></g><g><path fill="none" stroke="#5e72e4" stroke-linecap="round" stroke-linejoin="round" stroke-miterlimit="50" stroke-width=".5" d="M639.446 17.109l-3.783 3.783"/></g></g><g><g><path fill="none" stroke="#5e72e4" stroke-linecap="round" stroke-linejoin="round" stroke-miterlimit="50" stroke-width=".5" d="M738.309 140.195l3.783 3.783"/></g><g><path fill="none" stroke="#5e72e4" stroke-linecap="round" stroke-linejoin="round" stroke-miterlimit="50" stroke-width=".5" d="M742.092 140.195l-3.783 3.783"/></g></g><g><path fill="none" stroke="#ff7979" stroke-linecap="round" stroke-linejoin="round" stroke-miterlimit="50" stroke-width=".5" d="M180.757 151.38a2.714 2.714 0 1 1 5.428 0 2.714 2.714 0 0 1-5.428 0z"/></g><g><path fill="none" stroke="#5e72e4" stroke-linecap="round" stroke-linejoin="round" stroke-miterlimit="50" stroke-width=".5" d="M282.343 97.068a2.714 2.714 0 1 1 5.428 0 2.714 2.714 0 0 1-5.428 0z"/></g><g><path fill="none" stroke="#5e72e4" stroke-linecap="round" stroke-linejoin="round" stroke-miterlimit="50" stroke-width=".5" d="M747.161 53.892v0l6.412 1.016v0l-4.085 5.046v0z"/></g><g><path fill="none" stroke="#ff7979" stroke-linecap="round" stroke-linejoin="round" stroke-miterlimit="50" stroke-width=".5" d="M589.853 85.98v0l-6.41 1.015v0l4.083 5.046v0z"/></g><g><path fill="none" stroke="#ff7979" stroke-linecap="round" stroke-linejoin="round" stroke-miterlimit="50" stroke-width=".5" d="M339.351 48.078v0l-6.41 1.016v0l4.084 5.046v0z"/></g><g><path fill="none" stroke="#ff7979" stroke-linecap="round" stroke-linejoin="round" stroke-miterlimit="50" stroke-width=".5" d="M762.886 181.078c2.128 0 2.128 1.594 4.254 1.594 2.13 0 2.13-1.594 4.258-1.594 2.13 0 2.13 1.594 4.261 1.594 2.13 0 2.13-1.594 4.26-1.594 2.132 0 2.132 1.594 4.268 1.594 2.13 0 2.13-1.594 4.266-1.594"/></g><g><path fill="none" stroke="#5e72e4" stroke-linecap="round" stroke-linejoin="round" stroke-miterlimit="50" stroke-width=".5" d="M384.926 96.183c2.128 0 2.128 1.594 4.255 1.594 2.128 0 2.128-1.594 4.257-1.594 2.131 0 2.131 1.594 4.26 1.594 2.13 0 2.13-1.594 4.262-1.594 2.131 0 2.131 1.594 4.266 1.594 2.133 0 2.133-1.594 4.267-1.594"/></g></g><g><g><g><g><path fill="#fff" d="M205.732 266.129c26.379-4.837 45.283 3.532 60.03 16.41 14.75 12.88 19.42 33.064 64.24 42.185 44.82 9.123 60.143 30.52 63.283 57.524 3.14 27.004-18.095 66.473-67.822 66.473h-98.542c-18.073 0-58.789-4.154-76.238-44.037-17.45-39.885-19.735-124.846 55.05-138.555z"/></g><g><path fill="#e7e9f6" d="M185.545 286.783c4.635-7.493 7.308-10.163 18.004-12.657 10.7-2.492 50.167 10.698 59.783 16.515 9.615 5.816 23.828 25.757 40.653 36.161 16.827 10.406 58.165 17.78 64.753 64.033 4.875 34.235-14.277 50.404-34 57.399a88.185 88.185 0 0 1-9.275.487h-47.437c-5.094-15.019-19.691-40.366-50.762-67.027-42.929-36.836-46.356-87.418-41.72-94.91z"/></g><g><path fill="none" stroke="#5e72e4" stroke-linecap="round" stroke-linejoin="round" stroke-miterlimit="50" stroke-width=".75" d="M205.732 266.129c26.379-4.837 45.283 3.532 60.03 16.41 14.75 12.88 19.42 33.064 64.24 42.185 44.82 9.123 60.143 30.52 63.283 57.524 3.14 27.004-18.095 66.473-67.822 66.473h-98.542c-18.073 0-58.789-4.154-76.238-44.037-17.45-39.885-19.735-124.846 55.05-138.555z"/></g></g><g><g><g><path fill="#fff" d="M394.556 397.343l19.697 25.717-2.228 9.183-9.576 4.5s-1.113-3.85-3.743-7.256c-2.627-3.406-16.987-21.203-16.987-21.203z"/><path fill="none" stroke="#5e72e4" stroke-linecap="round" stroke-linejoin="round" stroke-miterlimit="50" stroke-width=".75" d="M394.556 397.343v0l19.697 25.717v0l-2.228 9.183v0l-9.576 4.5v0s-1.113-3.85-3.743-7.256c-2.627-3.406-16.987-21.203-16.987-21.203v0z"/></g><g><g><g><g><path fill="#fff" d="M407.071 451.148l3.425 5.079 53.952-31.64-3.423-5.08-17.006 9.98z"/></g><g><path fill="#e7e9f6" d="M421.789 418.128c-4.707-.52-6.328-2.304-7.839-1.269-1.524 1.056-2.108 4.205.894 6.2.878-.55 1.963-.891 3.554-1.118 3.31-.503 16.697-2.175 19.683-2.435 2.984-.26 3.519 1.77 3.519 1.77-.014-1.721.294-2.905.472-3.44 0 0-.78-1.478-3.423-1.04-2.629.438-12.17 1.835-16.86 1.332z"/><path fill="none" stroke="#5e72e4" stroke-miterlimit="50" d="M421.789 418.128c-4.707-.52-6.328-2.304-7.839-1.269-1.524 1.056-2.108 4.205.894 6.2.878-.55 1.963-.891 3.554-1.118 3.31-.503 16.697-2.175 19.683-2.435 2.984-.26 3.519 1.77 3.519 1.77-.014-1.721.294-2.905.472-3.44 0 0-.78-1.478-3.423-1.04-2.629.438-12.17 1.835-16.86 1.332z"/></g><g><path fill="#fff" d="M438.08 419.506c-2.985.26-16.372 1.932-19.682 2.435-1.59.227-2.676.568-3.554 1.119-.959.584-1.656 1.429-2.418 2.727-1.478 2.499-3.7 5.128-6.54 6.7-2.837 1.574-4.362 1.218-4.527 3.7-.147 2.482 1.51 9.688 5.713 14.961l36.947-21.66c-1.866-3.312-2.386-6.136-2.419-8.212 0 0-.535-2.03-3.52-1.77z"/></g><g><path fill="#fff" d="M442.072 417.836c-.178.535-.486 1.719-.472 3.44.033 2.076.552 4.9 2.42 8.211l17.006-9.981s-4.383-7.4-18.842-1.978c0 0-.047.112-.112.308z"/></g></g><g><g><path fill="none" stroke="#5e72e4" stroke-linecap="round" stroke-linejoin="round" stroke-miterlimit="50" stroke-width=".75" d="M407.071 451.148v0l36.948-21.661v0l17.006-9.98v0l3.423 5.08v0l-53.952 31.64v0z"/></g><g><path fill="none" stroke="#5e72e4" stroke-linecap="round" stroke-linejoin="round" stroke-miterlimit="50" stroke-width=".75" d="M461.026 419.506v0s-4.383-7.4-18.842-1.978c0 0-.047.112-.112.308-.178.535-.486 1.719-.472 3.44.033 2.076.552 4.9 2.42 8.211"/></g><g><path fill="none" stroke="#5e72e4" stroke-linecap="round" stroke-linejoin="round" stroke-miterlimit="50" stroke-width=".75" d="M441.6 421.276v0s-.535-2.03-3.52-1.77c-2.985.26-16.372 1.932-19.682 2.435-1.59.227-2.676.568-3.554 1.119-.959.584-1.656 1.429-2.418 2.727-1.478 2.499-3.7 5.128-6.54 6.7-2.837 1.574-4.362 1.218-4.527 3.7-.147 2.482 1.51 9.688 5.713 14.961"/></g><g><path fill="none" stroke="#5e72e4" stroke-linecap="round" stroke-linejoin="round" stroke-miterlimit="50" stroke-width=".75" d="M442.072 417.836v0s-.78-1.478-3.423-1.04c-2.629.438-12.17 1.835-16.86 1.332-4.707-.52-6.328-2.304-7.839-1.269-1.524 1.056-2.108 4.205.894 6.2"/></g></g></g><g><g><path fill="#fff" d="M434.828 422.596c-.06.688.45 1.296 1.138 1.356a1.249 1.249 0 0 0 1.354-1.138l.56-6.396a1.249 1.249 0 0 0-1.134-1.356 1.254 1.254 0 0 0-1.358 1.135z"/><path fill="none" stroke="#5e72e4" stroke-linecap="round" stroke-linejoin="round" stroke-miterlimit="50" stroke-width=".75" d="M434.828 422.596c-.06.688.45 1.296 1.138 1.356v0a1.249 1.249 0 0 0 1.354-1.138l.56-6.396a1.249 1.249 0 0 0-1.134-1.356v0a1.254 1.254 0 0 0-1.358 1.135z"/></g><g><path fill="#fff" d="M429.602 423.549a1.253 1.253 0 0 0 1.137 1.359 1.254 1.254 0 0 0 1.355-1.14l.66-6.945a1.253 1.253 0 0 0-1.136-1.357 1.256 1.256 0 0 0-1.355 1.138z"/><path fill="none" stroke="#5e72e4" stroke-linecap="round" stroke-linejoin="round" stroke-miterlimit="50" stroke-width=".75" d="M429.602 423.549a1.253 1.253 0 0 0 1.137 1.359v0a1.254 1.254 0 0 0 1.355-1.14l.66-6.945a1.253 1.253 0 0 0-1.136-1.357v0a1.256 1.256 0 0 0-1.355 1.138z"/></g><g><path fill="#fff" d="M424.375 424.503a1.252 1.252 0 0 0 2.494.219l.758-7.493a1.252 1.252 0 0 0-1.136-1.357 1.253 1.253 0 0 0-1.356 1.138z"/><path fill="none" stroke="#5e72e4" stroke-linecap="round" stroke-linejoin="round" stroke-miterlimit="50" stroke-width=".75" d="M424.375 424.503a1.251 1.251 0 0 0 1.138 1.356v0c.687.06 1.295-.45 1.356-1.137l.758-7.493a1.252 1.252 0 0 0-1.136-1.357v0a1.253 1.253 0 0 0-1.356 1.138z"/></g><g><path fill="#fff" d="M419.149 425.457a1.25 1.25 0 1 0 2.492.217l.859-8.038a1.252 1.252 0 0 0-1.137-1.358 1.253 1.253 0 0 0-1.355 1.137z"/><path fill="none" stroke="#007dea" stroke-linecap="round" stroke-linejoin="round" stroke-miterlimit="50" stroke-width=".75" d="M419.149 425.457a1.252 1.252 0 0 0 1.137 1.356v0a1.25 1.25 0 0 0 1.355-1.139l.859-8.038a1.252 1.252 0 0 0-1.137-1.358v0a1.253 1.253 0 0 0-1.355 1.137z"/></g></g></g><g><g><g><path fill="#fff" d="M349.83 328.88l47.668 70.54-18.589 16.48-42.086-52.763s-25.744 11.217-31.84 11.217H274.24c-2.909 0-14.694-1.962-19.075-14.125-2.21-6.146-5.642-21.567 13.807-31.349z"/></g><g><path fill="#e7e9f6" d="M268.972 328.88h80.858l17.197 25.449-21.972 19.13-8.232-10.322s-25.744 11.217-31.84 11.217H274.24c-2.909 0-14.694-1.962-19.075-14.125-2.21-6.146-5.642-21.567 13.807-31.349z"/></g><g><path fill="none" stroke="#5e72e4" stroke-linecap="round" stroke-linejoin="round" stroke-miterlimit="50" stroke-width=".75" d="M349.83 328.88v0l47.668 70.54v0l-18.589 16.48v0l-42.086-52.763v0s-25.744 11.217-31.84 11.217H274.24c-2.909 0-14.694-1.962-19.075-14.125-2.21-6.146-5.642-21.567 13.807-31.349z"/></g></g><g><path fill="none" stroke="#007dea" stroke-linecap="round" stroke-linejoin="round" stroke-miterlimit="50" stroke-width=".75" d="M336.823 363.137s-3.767-11.32-.134-20.357"/></g><g><path fill="none" stroke="#5e72e4" stroke-linecap="round" stroke-linejoin="round" stroke-miterlimit="50" stroke-width=".75" d="M393.285 393.186L374.521 410.4"/></g></g></g><g><path fill="#5e72e4" d="M204.073 217.572c1.969 14.283 2.905 18.643-1.562 25.81-4.465 7.168-9.14 18.073-.933 25.655h38.324v-52.555z"/><path fill="none" stroke="#5e72e4" stroke-linecap="round" stroke-linejoin="round" stroke-miterlimit="50" stroke-width=".75" d="M204.073 217.572c1.969 14.283 2.905 18.643-1.562 25.81-4.465 7.168-9.14 18.073-.933 25.655h38.324v0-52.555 0z"/></g><g><path fill="#fff" d="M243.518 252.993c2.513 2.197 11.03 6.142 12.9 7.388 1.868 1.246 11.078 13.018 12.324 18.21 1.246 5.193.069 15.442 1.04 22.228.967 6.785 10.315 33.444 10.315 33.444l-46.113 25.966s-2.704-9.002-3.256-16.341c-.556-7.339-2.353-13.573-8.034-21.19-5.677-7.616-23.091-37.147-24.44-45.04-1.353-7.894-.354-11.321 4.638-15.823 3.14-2.832 12.949-7.685 12.949-7.685z"/><path fill="none" stroke="#5e72e4" stroke-linecap="round" stroke-linejoin="round" stroke-miterlimit="50" stroke-width=".75" d="M243.518 252.993c2.513 2.197 11.03 6.142 12.9 7.388 1.868 1.246 11.078 13.018 12.324 18.21 1.246 5.193.069 15.442 1.04 22.228.967 6.785 10.315 33.444 10.315 33.444v0l-46.113 25.966v0s-2.704-9.002-3.256-16.341c-.556-7.339-2.353-13.573-8.034-21.19-5.677-7.616-23.091-37.147-24.44-45.04-1.353-7.894-.354-11.321 4.638-15.823 3.14-2.832 12.949-7.685 12.949-7.685v0z"/></g><g><g><path fill="#fff" d="M367.827 397.343l15.855 25.717-3.598 9.183-10.247 4.5s-.54-3.85-2.66-7.256c-2.118-3.406-13.82-21.203-13.82-21.203z"/><path fill="none" stroke="#5e72e4" stroke-linecap="round" stroke-linejoin="round" stroke-miterlimit="50" stroke-width=".75" d="M367.827 397.343v0l15.855 25.717v0l-3.598 9.183v0l-10.247 4.5v0s-.54-3.85-2.66-7.256c-2.118-3.406-13.82-21.203-13.82-21.203v0z"/></g><g><g><g><path fill="#fff" d="M374.46 451.148l3.422 5.079 53.953-31.64-3.424-5.08-17.004 9.98z"/></g><g><path fill="#e7e9f6" d="M389.173 418.128c-4.702-.52-6.327-2.304-7.835-1.269-1.524 1.056-2.11 4.205.893 6.2.875-.55 1.964-.891 3.555-1.118 3.308-.503 16.695-2.175 19.68-2.435 2.987-.26 3.52 1.77 3.52 1.77-.016-1.721.294-2.905.472-3.44 0 0-.778-1.478-3.423-1.04-2.63.438-12.17 1.835-16.862 1.332z"/></g><g><path fill="#fff" d="M405.467 419.506c-2.986.26-16.373 1.932-19.681 2.435-1.59.227-2.68.568-3.555 1.119-.957.584-1.655 1.429-2.417 2.727-1.48 2.499-3.702 5.128-6.539 6.7-2.84 1.574-4.365 1.218-4.529 3.7-.146 2.482 1.508 9.688 5.713 14.961l36.948-21.66c-1.868-3.312-2.388-6.136-2.42-8.212 0 0-.534-2.03-3.52-1.77z"/></g><g><path fill="#fff" d="M409.458 417.836c-.178.535-.488 1.719-.472 3.44.033 2.076.553 4.9 2.421 8.211l17.005-9.981s-4.383-7.4-18.84-1.978c0 0-.05.112-.114.308z"/></g></g><g><g><path fill="none" stroke="#5e72e4" stroke-linecap="round" stroke-linejoin="round" stroke-miterlimit="50" stroke-width=".75" d="M374.46 451.148v0l36.947-21.661v0l17.004-9.98v0l3.424 5.08v0l-53.953 31.64v0z"/></g><g><path fill="none" stroke="#5e72e4" stroke-linecap="round" stroke-linejoin="round" stroke-miterlimit="50" stroke-width=".75" d="M428.412 419.506v0s-4.383-7.4-18.84-1.978c0 0-.05.112-.114.308-.178.535-.488 1.719-.472 3.44.033 2.076.553 4.9 2.421 8.211"/></g><g><path fill="none" stroke="#5e72e4" stroke-linecap="round" stroke-linejoin="round" stroke-miterlimit="50" stroke-width=".75" d="M408.986 421.276v0s-.533-2.03-3.52-1.77c-2.985.26-16.372 1.932-19.68 2.435-1.59.227-2.68.568-3.555 1.119-.957.584-1.655 1.429-2.417 2.727-1.48 2.499-3.702 5.128-6.539 6.7-2.84 1.574-4.365 1.218-4.529 3.7-.146 2.482 1.508 9.688 5.713 14.961"/></g><g><path fill="none" stroke="#5e72e4" stroke-linecap="round" stroke-linejoin="round" stroke-miterlimit="50" stroke-width=".75" d="M409.458 417.836v0s-.778-1.478-3.423-1.04c-2.63.438-12.17 1.835-16.862 1.332-4.702-.52-6.327-2.304-7.835-1.269-1.524 1.056-2.11 4.205.893 6.2"/></g></g></g><g><g><path fill="#fff" d="M402.214 422.596a1.253 1.253 0 0 0 1.138 1.356 1.25 1.25 0 0 0 1.356-1.138l.56-6.396a1.25 1.25 0 0 0-1.138-1.356 1.253 1.253 0 0 0-1.354 1.135z"/><path fill="none" stroke="#5e72e4" stroke-linecap="round" stroke-linejoin="round" stroke-miterlimit="50" stroke-width=".75" d="M402.214 422.596a1.253 1.253 0 0 0 1.138 1.356v0a1.25 1.25 0 0 0 1.356-1.138l.56-6.396a1.25 1.25 0 0 0-1.138-1.356v0a1.253 1.253 0 0 0-1.354 1.135z"/></g><g><path fill="#fff" d="M396.99 423.549a1.252 1.252 0 0 0 1.135 1.359 1.254 1.254 0 0 0 1.356-1.14l.66-6.945a1.252 1.252 0 0 0-1.135-1.357 1.254 1.254 0 0 0-1.356 1.138z"/><path fill="none" stroke="#5e72e4" stroke-linecap="round" stroke-linejoin="round" stroke-miterlimit="50" stroke-width=".75" d="M396.99 423.549a1.252 1.252 0 0 0 1.135 1.359v0a1.254 1.254 0 0 0 1.356-1.14l.66-6.945a1.252 1.252 0 0 0-1.135-1.357v0a1.254 1.254 0 0 0-1.356 1.138z"/></g><g><path fill="#fff" d="M391.76 424.503a1.253 1.253 0 0 0 2.495.219l.757-7.493a1.25 1.25 0 0 0-1.135-1.357 1.252 1.252 0 0 0-1.354 1.138z"/><path fill="none" stroke="#5e72e4" stroke-linecap="round" stroke-linejoin="round" stroke-miterlimit="50" stroke-width=".75" d="M391.76 424.503c-.06.689.452 1.297 1.137 1.356v0c.69.06 1.3-.45 1.36-1.137l.755-7.493a1.25 1.25 0 0 0-1.135-1.357v0a1.252 1.252 0 0 0-1.354 1.138z"/></g><g><path fill="#fff" d="M386.535 425.457a1.252 1.252 0 0 0 1.138 1.356 1.248 1.248 0 0 0 1.356-1.139l.859-8.038a1.253 1.253 0 0 0-1.138-1.358 1.253 1.253 0 0 0-1.356 1.137z"/><path fill="none" stroke="#5e72e4" stroke-linecap="round" stroke-linejoin="round" stroke-miterlimit="50" stroke-width=".75" d="M386.535 425.457a1.252 1.252 0 0 0 1.138 1.356v0a1.248 1.248 0 0 0 1.356-1.139l.859-8.038a1.253 1.253 0 0 0-1.138-1.358v0a1.253 1.253 0 0 0-1.356 1.137z"/></g></g></g><g><g><path fill="#fff" d="M333.329 328.88l37.13 70.54-21.051 16.48-34.205-52.763s-27.42 11.217-33.514 11.217h-30.743c-2.909 0-14.402-1.962-16.962-14.125-1.297-6.146-2.426-21.567 18.485-31.349z"/><path fill="none" stroke="#5e72e4" stroke-linecap="round" stroke-linejoin="round" stroke-miterlimit="50" stroke-width=".75" d="M333.329 328.88v0l37.13 70.54v0l-21.051 16.48v0l-34.205-52.763v0s-27.42 11.217-33.514 11.217h-30.743c-2.909 0-14.402-1.962-16.962-14.125-1.297-6.146-2.426-21.567 18.485-31.349z"/></g><g><path fill="none" stroke="#5e72e4" stroke-linecap="round" stroke-linejoin="round" stroke-miterlimit="50" stroke-width=".75" d="M315.203 363.137s-2.078-11.32 2.909-20.357"/></g><g><path fill="none" stroke="#5e72e4" stroke-linecap="round" stroke-linejoin="round" stroke-miterlimit="50" stroke-width=".75" d="M367.176 393.186L345.842 410.4"/></g></g><g><g><g><path fill="#fff" d="M219.787 231.715s.899 8.586.554 13.503c-.346 4.917-4.5 8.932-4.5 8.932s6.646 10.873 21.881 8.034c6.612-1.233 7.269-7.202 6.3-8.586-.97-1.385-6.854-5.861-6.854-21.883z"/></g><g><path fill="#e7e9f6" d="M220.419 242.316c-.025-4.796-.632-10.601-.632-10.601h17.381c0 16.022 5.885 20.498 6.855 21.883.462.66.543 2.362-.202 4.097-11.134-1.72-19.741-10.84-23.402-15.38z"/></g><g><path fill="none" stroke="#5e72e4" stroke-linecap="round" stroke-linejoin="round" stroke-miterlimit="50" stroke-width=".75" d="M219.787 231.715v0s.899 8.586.554 13.503c-.346 4.917-4.5 8.932-4.5 8.932v0s6.646 10.873 21.881 8.034c6.612-1.233 7.269-7.202 6.3-8.586-.97-1.385-6.854-5.861-6.854-21.883z"/></g></g><g><path fill="#5e72e4" d="M247.753 192.718c12.265 7.215 24.174 25.715 2.294 28.893h-6.788v-28.893z"/><path fill="none" stroke="#5e72e4" stroke-linecap="round" stroke-linejoin="round" stroke-miterlimit="50" stroke-width=".75" d="M247.753 192.718c12.265 7.215 24.174 25.715 2.294 28.893h-6.788v0-28.893 0z"/></g><g><path fill="#fff" d="M243.642 197.164c8.135 5.332 9.867 12.982 9.867 21.083 0 8.102-.052 8.363.364 12.517s-3.51 14.73-8.604 15.571c-5.817.96-18.816-1.862-24.53-10.845-6.44-2.078-11.653-7.26-12.17-20.669-.624-16.201 19.338-27.97 35.073-17.657z"/><path fill="none" stroke="#5e72e4" stroke-linecap="round" stroke-linejoin="round" stroke-miterlimit="50" stroke-width=".75" d="M243.642 197.164c8.135 5.332 9.867 12.982 9.867 21.083 0 8.102-.052 8.363.364 12.517s-3.51 14.73-8.604 15.571c-5.817.96-18.816-1.862-24.53-10.845-6.44-2.078-11.653-7.26-12.17-20.669-.624-16.201 19.338-27.97 35.073-17.657z"/></g><g><path fill="#5e72e4" d="M248.593 193.29c2.726 2.042-.764 16.061-13.435 24.162-11.688 7.473-21.603 8.034-21.603 8.034s-7.709.33-9-5.126c-1.87-7.893-.209-20.702 13.154-27.972 11.657-6.342 25.898-2.837 30.884.901z"/><path fill="none" stroke="#5e72e4" stroke-linecap="round" stroke-linejoin="round" stroke-miterlimit="50" stroke-width=".75" d="M248.593 193.29c2.726 2.042-.764 16.061-13.435 24.162-11.688 7.473-21.603 8.034-21.603 8.034v0s-7.709.33-9-5.126c-1.87-7.893-.209-20.702 13.154-27.972 11.657-6.342 25.898-2.837 30.884.901z"/></g><g><g><path fill="#fff" d="M218.767 225.933s-2.547-4.57-6.596-4.31c-4.051.26-2.545 6.649 0 9.868 2.544 3.22 6.803 4.205 8.567 3.999 0 0 .053-4.726-1.971-9.557z"/></g><g><path fill="none" stroke="#5e72e4" stroke-linecap="round" stroke-linejoin="round" stroke-miterlimit="50" stroke-width=".75" d="M218.767 225.933v0s-2.547-4.57-6.596-4.31c-4.051.26-2.545 6.649 0 9.868 2.544 3.22 6.803 4.205 8.567 3.999"/></g></g><g><path fill="#5e72e4" d="M234.777 223.236c0 1.245.79 2.253 1.767 2.253.973 0 1.764-1.008 1.764-2.253 0-1.244-.79-2.252-1.764-2.252-.976 0-1.767 1.008-1.767 2.252z"/></g><g><path fill="#5e72e4" d="M249.46 223.236c0 1.092.643 1.977 1.436 1.977.794 0 1.435-.885 1.435-1.977 0-1.09-.641-1.976-1.435-1.976-.793 0-1.436.886-1.436 1.976z"/></g><g><path fill="none" stroke="#5e72e4" stroke-linecap="round" stroke-linejoin="round" stroke-miterlimit="50" stroke-width=".75" d="M246.758 232.374s1.194-.675.57-2.648"/></g><g><path fill="none" stroke="#ff7979" stroke-linecap="round" stroke-linejoin="round" stroke-miterlimit="50" stroke-width=".75" d="M247.132 237.877s-3.543 1.143-7.23-.986"/></g><g><path fill="none" stroke="#5e72e4" stroke-linecap="round" stroke-linejoin="round" stroke-miterlimit="50" stroke-width=".75" d="M239.433 217.572s-1.868-.987-6.281 0"/></g><g><path fill="none" stroke="#5e72e4" stroke-linecap="round" stroke-linejoin="round" stroke-miterlimit="50" stroke-width=".75" d="M249.46 217.134s1.14-.654 2.646-.652"/></g></g><g><path fill="#fff" d="M253.901 243.557h-6.768c-1.415 0-2.73.38-3.769 1.384-1.038 1.004-3.567 2.872-4.154 3.358-.588.486-1.593.968-1.453 1.454.137.486 1.738 1.643 3.848.805 2.105-.84 3.108-1.637 3.802-1.878.694-.241 2.597-.241 2.597-.241v9.278c0 .69 4.464 5.678 5.26 6.128.798.449 3.223.173 3.776 0 .554-.175 4.36-1.19 4.36-1.19s7.41 25.147 8.933 30.478c1.525 5.33 9.072 9.299 13.71 8.805 4.64-.497 5.265-8.39 4.71-11.991-.555-3.599-21.12-35.686-22.227-36.954-1.108-1.267-11.609-9.436-12.625-9.436z"/><path fill="none" stroke="#5e72e4" stroke-linecap="round" stroke-linejoin="round" stroke-miterlimit="50" stroke-width=".75" d="M253.901 243.557v0h-6.768c-1.415 0-2.73.38-3.769 1.384-1.038 1.004-3.567 2.872-4.154 3.358-.588.486-1.593.968-1.453 1.454.137.486 1.738 1.643 3.848.805 2.105-.84 3.108-1.637 3.802-1.878.694-.241 2.597-.241 2.597-.241v9.278c0 .69 4.464 5.678 5.26 6.128.798.449 3.223.173 3.776 0 .554-.175 4.36-1.19 4.36-1.19v0s7.41 25.147 8.933 30.478c1.525 5.33 9.072 9.299 13.71 8.805 4.64-.497 5.265-8.39 4.71-11.991-.555-3.599-21.12-35.686-22.227-36.954-1.108-1.267-11.609-9.436-12.625-9.436z"/></g><g><g><path fill="#e7e9f6" d="M259.221 324.725h36.56l-3.22 4.155H256z"/><path fill="none" stroke="#5e72e3" stroke-linecap="round" stroke-linejoin="round" stroke-miterlimit="50" stroke-width=".75" d="M259.221 324.725v0h36.56v0l-3.22 4.155v0H256v0z"/></g><g><path fill="#fff" d="M292.56 328.88h64.397l17.136-53.801H309.7z"/><path fill="none" stroke="#5e72e4" stroke-linecap="round" stroke-linejoin="round" stroke-miterlimit="50" stroke-width=".75" d="M292.56 328.88v0h64.397v0l17.136-53.801v0H309.7v0z"/></g><g><g><path fill="#5e72e4" d="M335.096 308.158l2.446-1.346c5.823-3.199 6.458-5.534 6.7-6.413.577-2.117-.67-3.834-2.787-3.834-1.334 0-2.694.682-3.662 1.716-.407-1.034-1.394-1.716-2.726-1.716-2.118 0-4.302 1.717-4.88 3.834-.241.879-.876 3.214 3.194 6.413z"/></g></g></g><g><g><g><path fill="#fff" d="M220.738 297.635l2.545 17.62 39.987 7.376s7.584-9.244 8.207-9.815c.623-.572 7.063-1.663 7.895-1.663.83 0 7.632 3.377 8.724 4.155 1.09.78 2.909 6.7 3.218 7.323.313.624.52 2.078-.778 2.078h-8.05c-.78 0-8.207 5.659-9.66 6.802-1.455 1.143-3.27 2.65-10.489 1.143-6.128.26-38.88.089-43.866-.051-4.984-.14-8.794-1.107-10.11-5.816-1.314-4.71-7.686-29.152-7.686-29.152z"/></g><g><path fill="#e7e9f6" d="M221.924 305.839c-2.559 1.2-7.988 3.26-17.798 4.99-1.796-6.848-3.452-13.194-3.452-13.194h20.064z"/></g><g><path fill="none" stroke="#5e72e4" stroke-linecap="round" stroke-linejoin="round" stroke-miterlimit="50" stroke-width=".75" d="M220.738 297.635v0l2.545 17.62v0l39.987 7.376v0s7.584-9.244 8.207-9.815c.623-.572 7.063-1.663 7.895-1.663.83 0 7.632 3.377 8.724 4.155 1.09.78 2.909 6.7 3.218 7.323.313.624.52 2.078-.778 2.078h-8.05c-.78 0-8.207 5.659-9.66 6.802-1.455 1.143-3.27 2.65-10.489 1.143-6.128.26-38.88.089-43.866-.051-4.984-.14-8.794-1.107-10.11-5.816-1.314-4.71-7.686-29.152-7.686-29.152v0z"/></g></g><g><g><path fill="#fff" d="M220.738 281.603l1.75 19.84s-15.857 1.11-26.173 0c0 0-2.127-19.841 1.948-33.185 3.035.227 21.316-3.79 22.475 13.345z"/></g><g><path fill="none" stroke="#5e72e4" stroke-linecap="round" stroke-linejoin="round" stroke-miterlimit="50" stroke-width=".75" d="M220.738 281.603v0l1.75 19.84v0s-15.857 1.11-26.173 0c0 0-2.127-19.841 1.948-33.185"/></g></g></g></g><g><g><path fill="#fff" d="M192.645 272.768l3.958 3.294s-17.253 6.754-11.022 25.035c6.813 19.978 36.976 27.006 66.058 37.392 29.08 10.387 50.771 29.633 58.588 56.5 7.28 25.018-4.05 50.038-25.269 53.36-5.202-.708-95.845-15.831-95.845-15.831L165.5 315.46c-1.106-31.614 27.145-42.692 27.145-42.692z"/></g><g><path fill="none" stroke="#5e72e4" stroke-linecap="round" stroke-linejoin="round" stroke-miterlimit="50" stroke-width=".75" d="M280.097 448.72c24.304 0 37.95-26.863 30.13-53.73-7.817-26.868-29.508-46.114-58.588-56.5-29.082-10.387-59.245-17.415-66.058-37.393-6.23-18.28 11.022-25.035 11.022-25.035v0"/></g></g></g><g><g><g><g><path fill="#fff" d="M148.908 415.475c6.862-4.726 2.711-12.524 5.893-17.69 3.18-5.163 1.135-10.463-2.12-13.867-3.254-3.407-4.056-6.2-1.757-11.023 2.299-4.824-.294-10.717-2.453-13.414-2.16-2.697-7.359-6.41-9.46-17.84-2.107-11.43-17.543-16.66-17.543-16.66s-9.933 12.924-5.336 23.598c4.597 10.669 2.34 16.645 2.04 20.089-.298 3.443.82 9.783 5.41 12.518 4.59 2.734 5.475 5.502 4.66 10.14-.815 4.64.425 10.184 5.941 12.711 5.512 2.53 6.39 11.32 14.725 11.438z"/><path fill="none" stroke="#5e72e4" stroke-linecap="round" stroke-linejoin="round" stroke-miterlimit="50" stroke-width=".75" d="M148.908 415.475c6.862-4.726 2.711-12.524 5.893-17.69 3.18-5.163 1.135-10.463-2.12-13.867-3.254-3.407-4.056-6.2-1.757-11.023 2.299-4.824-.294-10.717-2.453-13.414-2.16-2.697-7.359-6.41-9.46-17.84-2.107-11.43-17.543-16.66-17.543-16.66v0s-9.933 12.924-5.336 23.598c4.597 10.669 2.34 16.645 2.04 20.089-.298 3.443.82 9.783 5.41 12.518 4.59 2.734 5.475 5.502 4.66 10.14-.815 4.64.425 10.184 5.941 12.711 5.512 2.53 6.39 11.32 14.725 11.438z"/></g><g><path fill="none" stroke="#5e72e4" stroke-linecap="round" stroke-linejoin="round" stroke-miterlimit="50" stroke-width=".75" d="M148.908 415.475l-27.44-90.495"/></g><g><path fill="none" stroke="#5e72e4" stroke-linecap="round" stroke-linejoin="round" stroke-miterlimit="50" stroke-width=".75" d="M144.13 399.723l5.586-10.847"/></g><g><path fill="none" stroke="#5e72e4" stroke-linecap="round" stroke-linejoin="round" stroke-miterlimit="50" stroke-width=".75" d="M143.126 396.63l-11.347-4.481"/></g><g><path fill="none" stroke="#5e72e4" stroke-linecap="round" stroke-linejoin="round" stroke-miterlimit="50" stroke-width=".75" d="M128.287 347.749l-9.311-3.674"/></g><g><path fill="none" stroke="#5e72e4" stroke-linecap="round" stroke-linejoin="round" stroke-miterlimit="50" stroke-width=".75" d="M136.188 373.66l-15.01-5.923"/></g><g><path fill="none" stroke="#5e72e4" stroke-linecap="round" stroke-linejoin="round" stroke-miterlimit="50" stroke-width=".75" d="M136.94 376.01l7.033-13.672"/></g><g><path fill="none" stroke="#5e72e4" stroke-linecap="round" stroke-linejoin="round" stroke-miterlimit="50" stroke-width=".75" d="M129.5 351.479l4.313-8.369"/></g></g><g><g><path fill="#fff" d="M150.172 411.073c-6.366-4.297-2.609-11.515-5.583-16.248-2.975-4.73-1.137-9.63 1.833-12.793 2.969-3.165 3.681-5.746 1.524-10.169-2.159-4.424.176-9.875 2.145-12.38 1.965-2.504 6.72-5.97 8.56-16.516 1.84-10.549 16.016-15.501 16.016-15.501s9.262 11.82 5.12 21.692c-4.143 9.872-2.011 15.358-1.707 18.527.305 3.17-.67 9.02-4.875 11.579-4.205 2.559-4.995 5.116-4.205 9.383.792 4.265-.303 9.385-5.362 11.761-5.058 2.377-5.788 10.482-13.466 10.665z"/><path fill="none" stroke="#5e72e4" stroke-linecap="round" stroke-linejoin="round" stroke-miterlimit="50" stroke-width=".75" d="M150.172 411.073c-6.366-4.297-2.609-11.515-5.583-16.248-2.975-4.73-1.137-9.63 1.833-12.793 2.969-3.165 3.681-5.746 1.524-10.169-2.159-4.424.176-9.875 2.145-12.38 1.965-2.504 6.72-5.97 8.56-16.516 1.84-10.549 16.016-15.501 16.016-15.501v0s9.262 11.82 5.12 21.692c-4.143 9.872-2.011 15.358-1.707 18.527.305 3.17-.67 9.02-4.875 11.579-4.205 2.559-4.995 5.116-4.205 9.383.792 4.265-.303 9.385-5.362 11.761-5.058 2.377-5.788 10.482-13.466 10.665z"/></g><g><path fill="none" stroke="#5e72e4" stroke-linecap="round" stroke-linejoin="round" stroke-miterlimit="50" stroke-width=".75" d="M150.171 411.073l24.497-83.608"/></g><g><path fill="none" stroke="#5e72e4" stroke-linecap="round" stroke-linejoin="round" stroke-miterlimit="50" stroke-width=".75" d="M154.434 396.519l-5.238-9.943"/></g><g><path fill="none" stroke="#5e72e4" stroke-linecap="round" stroke-linejoin="round" stroke-miterlimit="50" stroke-width=".75" d="M155.334 393.66l10.414-4.224"/></g><g><path fill="none" stroke="#5e72e4" stroke-linecap="round" stroke-linejoin="round" stroke-miterlimit="50" stroke-width=".75" d="M168.582 348.502l8.545-3.466"/></g><g><path fill="none" stroke="#5e72e4" stroke-linecap="round" stroke-linejoin="round" stroke-miterlimit="50" stroke-width=".75" d="M161.528 372.44l13.774-5.588"/></g><g><path fill="none" stroke="#5e72e4" stroke-linecap="round" stroke-linejoin="round" stroke-miterlimit="50" stroke-width=".75" d="M160.854 374.611l-6.596-12.533"/></g><g><path fill="none" stroke="#5e72e4" stroke-linecap="round" stroke-linejoin="round" stroke-miterlimit="50" stroke-width=".75" d="M167.495 351.947l-4.044-7.67"/></g></g><g><g><path fill="#fff" d="M157.304 412.45c-2.303-3.693 1.31-6.563.86-9.7-.447-3.139 1.634-5.25 3.902-6.2 2.269-.956 3.234-2.128 3.137-4.915-.097-2.79 2.372-5.074 3.969-5.917 1.595-.843 4.859-1.54 8.246-6.575 3.39-5.038 11.871-4.329 11.871-4.329s2.067 8.258-2.355 12.412c-4.425 4.158-4.59 7.49-5.163 9.201-.573 1.711-2.427 4.515-5.195 4.87-2.769.354-3.77 1.497-4.345 3.89-.573 2.39-2.324 4.787-5.491 4.852-3.169.062-5.417 4.09-9.436 2.412z"/><path fill="none" stroke="#5e72e4" stroke-linecap="round" stroke-linejoin="round" stroke-miterlimit="50" stroke-width=".75" d="M157.304 412.45c-2.303-3.693 1.31-6.563.86-9.7-.447-3.139 1.634-5.25 3.902-6.2 2.269-.956 3.234-2.128 3.137-4.915-.097-2.79 2.372-5.074 3.969-5.917 1.595-.843 4.859-1.54 8.246-6.575 3.39-5.038 11.871-4.329 11.871-4.329v0s2.067 8.258-2.355 12.412c-4.425 4.158-4.59 7.49-5.163 9.201-.573 1.711-2.427 4.515-5.195 4.87-2.769.354-3.77 1.497-4.345 3.89-.573 2.39-2.324 4.787-5.491 4.852-3.169.062-5.417 4.09-9.436 2.412z"/></g><g><path fill="none" stroke="#5e72e4" stroke-linecap="round" stroke-linejoin="round" stroke-miterlimit="50" stroke-width=".75" d="M157.304 412.45l31.986-37.636"/></g><g><path fill="none" stroke="#5e72e4" stroke-linecap="round" stroke-linejoin="round" stroke-miterlimit="50" stroke-width=".75" d="M162.87 405.9l-.415-6.36"/></g><g><path fill="none" stroke="#5e72e4" stroke-linecap="round" stroke-linejoin="round" stroke-miterlimit="50" stroke-width=".75" d="M163.998 404.627l6.367.215"/></g><g><path fill="none" stroke="#5e72e4" stroke-linecap="round" stroke-linejoin="round" stroke-miterlimit="50" stroke-width=".75" d="M181.281 384.302l5.225.178"/></g><g><path fill="none" stroke="#5e72e4" stroke-linecap="round" stroke-linejoin="round" stroke-miterlimit="50" stroke-width=".75" d="M172.104 395.068l8.42.287"/></g><g><path fill="none" stroke="#5e72e4" stroke-linecap="round" stroke-linejoin="round" stroke-miterlimit="50" stroke-width=".75" d="M171.253 396.037l-.522-8.013"/></g><g><path fill="none" stroke="#5e72e4" stroke-linecap="round" stroke-linejoin="round" stroke-miterlimit="50" stroke-width=".75" d="M179.923 385.833l-.322-4.905"/></g></g><g><g><path fill="#fff" d="M142.301 412.45c2.303-3.693-1.31-6.563-.86-9.7.447-3.139-1.634-5.25-3.902-6.2-2.269-.956-3.234-2.128-3.137-4.915.097-2.79-2.372-5.074-3.969-5.917s-4.859-1.54-8.246-6.575c-3.39-5.038-11.873-4.329-11.873-4.329s-2.065 8.258 2.358 12.412c4.424 4.158 4.587 7.49 5.162 9.201.573 1.711 2.427 4.515 5.196 4.87 2.768.354 3.77 1.497 4.344 3.89.574 2.39 2.323 4.787 5.491 4.852 3.169.062 5.417 4.09 9.436 2.412z"/><path fill="none" stroke="#5e72e4" stroke-linecap="round" stroke-linejoin="round" stroke-miterlimit="50" stroke-width=".75" d="M142.301 412.45c2.303-3.693-1.31-6.563-.86-9.7.447-3.139-1.634-5.25-3.902-6.2-2.269-.956-3.234-2.128-3.137-4.915.097-2.79-2.372-5.074-3.969-5.917s-4.859-1.54-8.246-6.575c-3.39-5.038-11.873-4.329-11.873-4.329v0s-2.065 8.258 2.358 12.412c4.424 4.158 4.587 7.49 5.162 9.201.573 1.711 2.427 4.515 5.196 4.87 2.768.354 3.77 1.497 4.344 3.89.574 2.39 2.323 4.787 5.491 4.852 3.169.062 5.417 4.09 9.436 2.412z"/></g><g><path fill="none" stroke="#5e72e4" stroke-linecap="round" stroke-linejoin="round" stroke-miterlimit="50" stroke-width=".75" d="M142.3 412.45l-31.985-37.636"/></g><g><path fill="none" stroke="#5e72e4" stroke-linecap="round" stroke-linejoin="round" stroke-miterlimit="50" stroke-width=".75" d="M136.734 405.9l.415-6.36"/></g><g><path fill="none" stroke="#5e72e4" stroke-linecap="round" stroke-linejoin="round" stroke-miterlimit="50" stroke-width=".75" d="M135.607 404.627l-6.367.215"/></g><g><path fill="none" stroke="#5e72e4" stroke-linecap="round" stroke-linejoin="round" stroke-miterlimit="50" stroke-width=".75" d="M118.323 384.302l-5.224.178"/></g><g><path fill="none" stroke="#5e72e4" stroke-linecap="round" stroke-linejoin="round" stroke-miterlimit="50" stroke-width=".75" d="M127.5 395.068l-8.42.287"/></g><g><path fill="none" stroke="#5e72e4" stroke-linecap="round" stroke-linejoin="round" stroke-miterlimit="50" stroke-width=".75" d="M128.352 396.037l.522-8.013"/></g><g><path fill="none" stroke="#5e72e4" stroke-linecap="round" stroke-linejoin="round" stroke-miterlimit="50" stroke-width=".75" d="M119.681 385.833l.323-4.905"/></g></g></g><g><path fill="#fff" d="M130.952 439.433h37.701l6.085-33.072h-49.871z"/><path fill="none" stroke="#5e72e4" stroke-linecap="round" stroke-linejoin="round" stroke-miterlimit="50" stroke-width=".75" d="M130.952 439.433v0h37.701v0l6.085-33.072v0h-49.871v0z"/></g><g><g><g><path fill="#fff" d="M170.52 454.248v-25.044h4.734v25.044z"/><path fill="none" stroke="#5e72e4" stroke-linecap="round" stroke-linejoin="round" stroke-miterlimit="50" stroke-width=".75" d="M170.52 454.248v0-25.044 0h4.734v25.044z"/></g><g><path fill="#fff" d="M124.35 454.248v-25.044h4.735v25.044z"/><path fill="none" stroke="#5e72e4" stroke-linecap="round" stroke-linejoin="round" stroke-miterlimit="50" stroke-width=".75" d="M124.35 454.248v0-25.044 0h4.735v25.044z"/></g></g><g><path fill="#fff" d="M129.085 443.798v-4.365h41.435v4.365z"/><path fill="none" stroke="#5e72e4" stroke-linecap="round" stroke-linejoin="round" stroke-miterlimit="50" stroke-width=".75" d="M129.085 443.798v0-4.365 0h41.435v4.365z"/></g><g><path fill="#fff" d="M147.435 454.248v-25.044h4.735v25.044z"/><path fill="none" stroke="#5e72e4" stroke-linecap="round" stroke-linejoin="round" stroke-miterlimit="50" stroke-width=".75" d="M147.435 454.248v0-25.044 0h4.735v25.044z"/></g></g></g><g><g><g><path fill="none" stroke="#5e72e4" stroke-linecap="round" stroke-linejoin="round" stroke-miterlimit="50" stroke-width=".5" d="M96.688 310.379l-3.18 3.18"/></g><g><path fill="none" stroke="#5e72e4" stroke-linecap="round" stroke-linejoin="round" stroke-miterlimit="50" stroke-width=".5" d="M93.508 310.379l3.182 3.18"/></g></g><g><path fill="none" stroke="#5e72e4" stroke-linecap="round" stroke-linejoin="round" stroke-miterlimit="50" stroke-width=".5" d="M717.639 90.655a2.282 2.282 0 1 1 4.563 0 2.282 2.282 0 0 1-4.563 0z"/></g><g><path fill="none" stroke="#5e72e4" stroke-linecap="round" stroke-linejoin="round" stroke-miterlimit="50" stroke-width=".5" d="M155.022 260.742a2.282 2.282 0 1 1 4.564 0 2.282 2.282 0 0 1-4.564 0z"/></g><g><path fill="none" stroke="#5e72e4" stroke-linecap="round" stroke-linejoin="round" stroke-miterlimit="50" stroke-width=".5" d="M451.892 38.152v0l-5.392-.854v0l3.436-4.243v0z"/></g><g><path fill="none" stroke="#5e72e4" stroke-linecap="round" stroke-linejoin="round" stroke-miterlimit="50" stroke-width=".5" d="M96.9 232.804v0l5.39.854v0l-3.434 4.243v0z"/></g><g><path fill="none" stroke="#5e72e4" stroke-linecap="round" stroke-linejoin="round" stroke-miterlimit="50" stroke-width=".5" d="M178.67 203.38c-1.787 0-1.787 1.34-3.574 1.34-1.79 0-1.79-1.34-3.581-1.34s-1.791 1.34-3.583 1.34c-1.79 0-1.79-1.34-3.582-1.34-1.795 0-1.795 1.34-3.59 1.34-1.793 0-1.793-1.34-3.588-1.34"/></g></g></g><g><g><path fill="#e7e9f6" d="M569.191 32.794c0 17.788-14.42 32.205-32.207 32.205S504.78 50.582 504.78 32.794c0-17.786 14.417-32.206 32.204-32.206 17.788 0 32.207 14.42 32.207 32.206z"/><path fill="none" stroke="#5e72e4" stroke-linecap="round" stroke-linejoin="round" stroke-miterlimit="50" stroke-width=".75" d="M569.191 32.794c0 17.788-14.42 32.205-32.207 32.205S504.78 50.582 504.78 32.794c0-17.786 14.417-32.206 32.204-32.206 17.788 0 32.207 14.42 32.207 32.206z"/></g><g><path fill="#fff" d="M564.759 32.794c0 17.788-14.418 32.205-32.204 32.205-17.788 0-32.205-14.417-32.205-32.205 0-17.786 14.417-32.206 32.205-32.206 17.786 0 32.204 14.42 32.204 32.206z"/><path fill="none" stroke="#5e72e4" stroke-linecap="round" stroke-linejoin="round" stroke-miterlimit="50" stroke-width=".75" d="M564.759 32.794c0 17.788-14.418 32.205-32.204 32.205-17.788 0-32.205-14.417-32.205-32.205 0-17.786 14.417-32.206 32.205-32.206 17.786 0 32.204 14.42 32.204 32.206z"/></g><g><path fill="#fff" d="M526.386 59.076c-14.515-3.407-23.52-17.936-20.113-32.45 3.407-14.516 17.936-23.52 32.451-20.113s23.52 17.936 20.113 32.45c-3.408 14.516-17.936 23.52-32.451 20.113z"/><path fill="none" stroke="#5e72e4" stroke-linecap="round" stroke-linejoin="round" stroke-miterlimit="50" stroke-width=".75" d="M526.386 59.076c-14.515-3.407-23.52-17.936-20.113-32.45 3.407-14.516 17.936-23.52 32.451-20.113s23.52 17.936 20.113 32.45c-3.408 14.516-17.936 23.52-32.451 20.113z"/></g><g><path fill="#5e72e4" d="M534.659 32.794a2.105 2.105 0 1 1-4.212 0 2.105 2.105 0 1 1 4.211 0z"/></g><g><path fill="#5e72e4" d="M533.683 32.007c0 .623-.503 1.13-1.128 1.13a1.133 1.133 0 0 1-1.132-1.13V13.08c0-.625.51-1.13 1.132-1.13.625 0 1.128.505 1.128 1.13z"/></g><g><path fill="#5e72e4" d="M532.14 31.595c.544.31.727 1.001.415 1.543a1.13 1.13 0 0 1-1.542.412L520.31 27.37a1.13 1.13 0 0 1-.412-1.541 1.125 1.125 0 0 1 1.54-.413z"/></g></g></g></svg>