<svg xmlns="http://www.w3.org/2000/svg" viewBox="0 0 261.3242 147.4249">
  <g id="full-rgb">
    <g id="logoMark">
      <path id="logoMark_PathItem_" data-name="logoMark &lt;PathItem&gt;" d="M120.55,40.6185h0a1.4464,1.4464,0,0,0,2.0454,0l8.5173-8.5173a1.424,1.424,0,0,0,0-2.0138h0a1.4939,1.4939,0,0,0-2.1125,0l-8.45,8.45A1.4715,1.4715,0,0,0,120.55,40.6185Z" style="fill: #5e6fb3"/>
      <path id="logoMark_PathItem_2" data-name="logoMark &lt;PathItem&gt;" d="M125.3928,45.4611h0a1.4464,1.4464,0,0,0,2.0454,0l8.5174-8.5173a1.424,1.424,0,0,0,0-2.0137h0a1.4938,1.4938,0,0,0-2.1126,0l-8.45,8.45A1.4715,1.4715,0,0,0,125.3928,45.4611Z" style="fill: #5e6fb3"/>
      <path id="logoMark_PathItem_3" data-name="logoMark &lt;PathItem&gt;" d="M130.2459,50.3141h0a1.4462,1.4462,0,0,0,2.0454,0l8.5173-8.5173a1.4238,1.4238,0,0,0,0-2.0137h0a1.4938,1.4938,0,0,0-2.1126,0l-8.45,8.45A1.4713,1.4713,0,0,0,130.2459,50.3141Z" style="fill: #5e6fb3"/>
      <path id="logoMark_PathItem_4" data-name="logoMark &lt;PathItem&gt;" d="M103.57,42.457l36.51,36.51a3.4838,3.4838,0,0,0,4.9268,0l36.51-36.51a3.4838,3.4838,0,0,0,0-4.9268l-36.51-36.51a3.4838,3.4838,0,0,0-4.9268,0l-7.5831,7.5831,4.95,4.95,4.15-4.15a1.3379,1.3379,0,0,1,1.8921,0l29.6444,29.6438a1.338,1.338,0,0,1,0,1.8922L143.49,70.584a1.338,1.338,0,0,1-1.8922,0L111.9533,40.94a1.338,1.338,0,0,1,0-1.8922l16.8839-16.8833-4.9506-4.9506L103.57,37.53A3.4838,3.4838,0,0,0,103.57,42.457Z" style="fill: #5e6fb3"/>
      <path id="logoMark_PathItem_5" data-name="logoMark &lt;PathItem&gt;" d="M157.7543,37.53l-36.51-36.51a3.4838,3.4838,0,0,0-4.9268,0l-36.51,36.51a3.4838,3.4838,0,0,0,0,4.9268l36.51,36.51a3.4838,3.4838,0,0,0,4.9269,0l7.6-7.6006-4.95-4.9506-4.1674,4.1674a1.3379,1.3379,0,0,1-1.8921,0L88.1907,40.94a1.338,1.338,0,0,1,0-1.8922L117.8344,9.4038a1.338,1.338,0,0,1,1.8922,0L149.37,39.0476a1.3379,1.3379,0,0,1,0,1.8921L132.5046,57.8059l4.95,4.9507,20.3-20.3A3.4838,3.4838,0,0,0,157.7543,37.53Z" style="fill: #5e6fb3"/>
    </g>
    <g id="type">
      <polygon id="type_PathItem_" data-name="type &lt;PathItem&gt;" points="7.597 102.731 0 102.731 0 137.194 20.361 137.194 20.361 129.884 7.597 129.884 7.597 102.731" style="fill: #5e6fb3"/>
      <path id="type_CompoundPathItem_" data-name="type &lt;CompoundPathItem&gt;" d="M39.68,114.3282a10.2755,10.2755,0,0,0-7.2925-2.706c-6.6811,0-12.1167,5.8857-12.1167,13.121s5.4356,13.12,12.1167,13.12a10.2778,10.2778,0,0,0,7.2925-2.7051v2.0361h7.167V112.2911H39.68Zm-6.145,16.6553a6.2424,6.2424,0,0,1,0-12.4815,6.2415,6.2415,0,0,1,0,12.4815Z" style="fill: #5e6fb3"/>
      <path id="type_PathItem_2" data-name="type &lt;PathItem&gt;" d="M63.417,111.6222a9.1162,9.1162,0,0,0-6.6231,2.4492v-1.78H49.627v24.9033h7.1669V123.7872c0-3.501,1.69-5.4287,4.7588-5.4287,2.69,0,4.2329,1.6123,4.2329,4.4248v14.4111h7.167V122.0177C72.9526,115.8,69.1206,111.6222,63.417,111.6222Z" style="fill: #5e6fb3"/>
      <path id="type_CompoundPathItem_2" data-name="type &lt;CompoundPathItem&gt;" d="M93.7085,114.4093a9.7562,9.7562,0,0,0-7.1489-2.7871,12.7428,12.7428,0,0,0,0,25.4765,9.76,9.76,0,0,0,7.1489-2.7861v1.2344c0,3.4189-2.1006,5.38-5.7627,5.38-3.668,0-5.0015-1.5586-5.8223-3.083l-.2436-.4511-6.1284,3.51.2334.4287c2.1347,3.93,6.3144,6.0938,11.77,6.0938,6.4595,0,12.9775-3.6729,12.9775-11.8779V112.2911H93.7085ZM87.5156,130.41a6.0281,6.0281,0,1,1,6.1929-6.05A5.9214,5.9214,0,0,1,87.5156,130.41Z" style="fill: #5e6fb3"/>
      <path id="type_PathItem_3" data-name="type &lt;PathItem&gt;" d="M120.1709,109.4669a9.1483,9.1483,0,0,1,8.2622,4.52l.2461.4492,6.5713-3.81-.2612-.4345a17.2481,17.2481,0,0,0-14.8184-8.1319,17.9014,17.9014,0,0,0,0,35.8028,17.1265,17.1265,0,0,0,14.82-8.1338l.2559-.4336-6.57-3.81-.2452.4522a9.2013,9.2013,0,0,1-8.2607,4.4716c-6.1919,0-10.3521-4.1992-10.3521-10.4482C109.8188,113.6847,113.979,109.4669,120.1709,109.4669Z" style="fill: #5e6fb3"/>
      <path id="type_CompoundPathItem_3" data-name="type &lt;CompoundPathItem&gt;" d="M148.0459,111.6222a13.1207,13.1207,0,1,0,13.168,13.121A12.9817,12.9817,0,0,0,148.0459,111.6222Zm0,19.2177a6.0979,6.0979,0,1,1,6.001-6.0967A5.8291,5.8291,0,0,1,148.0459,130.84Z" style="fill: #5e6fb3"/>
      <path id="type_PathItem_4" data-name="type &lt;PathItem&gt;" d="M169.9189,114.9454v-2.6543H162.752v24.9033h7.1669V125.2686a5.3823,5.3823,0,0,1,1.668-4.23,6.4982,6.4982,0,0,1,5.0391-1.3457l.5595.0674v-7.9472h-.5A8.142,8.142,0,0,0,169.9189,114.9454Z" style="fill: #5e6fb3"/>
      <path id="type_PathItem_5" data-name="type &lt;PathItem&gt;" d="M186.126,114.9454v-2.6543h-7.167v24.9033h7.167V125.2686a5.3823,5.3823,0,0,1,1.6679-4.23,6.4982,6.4982,0,0,1,5.0391-1.3457l.56.0674v-7.9472h-.5A8.1419,8.1419,0,0,0,186.126,114.9454Z" style="fill: #5e6fb3"/>
      <path id="type_CompoundPathItem_4" data-name="type &lt;CompoundPathItem&gt;" d="M206.1367,111.6222a12.6911,12.6911,0,0,0-13.1211,13.121c0,7.7247,5.5928,13.12,13.6,13.12,4.6768,0,8.4229-1.8438,10.8321-5.3311l.3086-.4463-5.8233-3.3594-.2666.3516a6.1635,6.1635,0,0,1-4.9551,2.1924c-2.1894,0-4.9433-.626-6.0517-3.4942h17.7519l.0733-.413a14.5414,14.5414,0,0,0,.247-2.62C218.7314,117.2628,213.3164,111.6222,206.1367,111.6222Zm0,6.5458a5.2616,5.2616,0,0,1,5.2764,3.8282H200.5322A5.4187,5.4187,0,0,1,206.1367,118.168Z" style="fill: #5e6fb3"/>
      <path id="type_PathItem_6" data-name="type &lt;PathItem&gt;" d="M237.9092,127.87a5.3945,5.3945,0,0,1-5.0488,2.874,6.0266,6.0266,0,0,1,0-12.0508,5.4408,5.4408,0,0,1,5.0009,2.9219l.2364.4854,6.1865-3.6231-.2256-.4238a12.4894,12.4894,0,0,0-11.15-6.4316A13.1208,13.1208,0,1,0,244.1494,131.39l.2383-.4306-6.2451-3.5694Z" style="fill: #5e6fb3"/>
      <path id="type_PathItem_7" data-name="type &lt;PathItem&gt;" d="M261.3242,119.22v-6.9287h-5.4023v-6.8662l-7.167,2.167v4.6992h-4.1592V119.22h4.1592v9.4434c0,3.2607.7285,5.4316,2.293,6.833,1.4218,1.2734,3.5459,1.8926,6.57,1.8926a29.9657,29.9657,0,0,0,3.2607-.1973l.4453-.0488v-6.5694l-.5273.0283c-2.166.1163-3.752.1514-4.4219-.4853a1.8948,1.8948,0,0,1-.4531-1.4531V119.22Z" style="fill: #5e6fb3"/>
    </g>
  </g>
</svg>
